<mxfile host="app.diagrams.net" modified="2023-05-03T12:13:14.844Z" agent="Mozilla/5.0 (Windows NT 10.0; Win64; x64) AppleWebKit/537.36 (KHTML, like Gecko) Chrome/112.0.0.0 Safari/537.36" etag="rcWq2fDMm_fqcK8PwVqO" version="21.2.1" type="device">
  <diagram id="C5RBs43oDa-KdzZeNtuy" name="Page-1">
    <mxGraphModel dx="4407" dy="2373" grid="1" gridSize="10" guides="1" tooltips="1" connect="1" arrows="1" fold="1" page="1" pageScale="1" pageWidth="827" pageHeight="1169" math="0" shadow="0">
      <root>
        <mxCell id="WIyWlLk6GJQsqaUBKTNV-0" />
        <mxCell id="WIyWlLk6GJQsqaUBKTNV-1" parent="WIyWlLk6GJQsqaUBKTNV-0" />
        <mxCell id="MHq2j8EdVcQQY9GaIC-C-0" value="&lt;h1&gt;&lt;span style=&quot;background-color: initial;&quot;&gt;Proyecto&lt;br&gt;&lt;/span&gt;&lt;span style=&quot;font-size: 12px; font-weight: 400;&quot;&gt;Mi proyecto consiste en un programa que permite crear una ficha de personaje de rol, rellenando sus distintos campos (conformados por texto y enumeraciones) y almacenar en un Equipo de personajes junto a otros personajes previamente creados.&lt;br&gt;&lt;/span&gt;&lt;/h1&gt;Así&lt;span style=&quot;background-color: initial;&quot;&gt;&amp;nbsp;como Exportarla a un archivo externo de tipo CSV e importarla para visualizarla otra vez dentro del programa por consola.&lt;/span&gt;" style="text;html=1;strokeColor=none;fillColor=none;spacing=5;spacingTop=-20;whiteSpace=wrap;overflow=hidden;rounded=0;" parent="WIyWlLk6GJQsqaUBKTNV-1" vertex="1">
          <mxGeometry x="-1522" y="76" width="740" height="180" as="geometry" />
        </mxCell>
        <UserObject label="" plantUmlData="{&quot;data&quot;:&quot;@startuml\nskinparam shadowing false\n\nVistaGeneral--|&gt;VistaGeneralException:usa\nVistaGeneralException--|&gt;Exception:es un\n\nPersonajeFicha..&gt;PersonajeFichaTest:usa\nEquipo..&gt;EquipoTest:usa\n\nControlBuclePrincipal..&gt;VistaMenu:usa\nControlBuclePrincipal..&gt;AccesoDatos:usa\nControlBuclePrincipal..&gt;PersonajeFicha:usa\nControlBuclePrincipal..&gt;VistaListadoTextos:usa\nControlBuclePrincipal..&gt;VistaAltas:usa\nVistaMenu--|&gt;VistaGeneral:es un\nPersonajeFicha&lt;--Equipo:esta formado por\nPersonajeFicha o-- Profesion:enum\nPersonajeFicha o-- Raza:enum\nPersonajeFicha o-- Armadura:enum\nPersonajeFicha o-- Arma:enum\n\nClass VistaGeneralException{\n}\n\nClass VistaMenu{\n{final}{static}-TEXTO_OPTIONS : String[]\n-in : Scanner\n-listaOpciones : ArrayList&lt;String&gt;\n+VistaMenu(T[])\n+mostrarOpciones()\n+pedirOpcion()\n}\n\nClass VistaListadoTextos{\n-fichaAlmacenada : Vector&lt;Equipo&gt;\n+VistaListadoTextos(Equipo)\n+mostrar()\n}\n\nClass VistaGeneral{\n{final}-TextoPeticion : String\n{final}{static}-entrada : Scanner\n{static}+getEntrada()\n{static}+pedirEntero()\n{static}+pedirEntero(String)\n{static}+pedirEntero(String, int, int)\n{static}+pedirEnteroAlt(int, int)\n}\n\nClass VistaAltas{\n-listaNuevosTextos : Vector&lt;String&gt;\n-peticionNombreJugador : String\n-peticionNombrePersonaje : String\n\n+VistaAltas()\n-mostrarAviso(String)\n-preguntarNombreJugador()\n-preguntarNombrePersonaje()\n-preguntarProfesion()\n-preguntarRaza()\n-preguntarArmadura()\n-preguntarArma()\n+cargarPersonaje()\n}\n\nClass AccesoDatos{\n +AccesoDatos()\n{static} +exportarEquipoToCsv(equipoDePersonajes:List&lt;String&gt;, refArchivo:String):void\n}\n\nClass ControlBuclePrincipal{\n{static} -OPCIONES_MENU : String[]\n{static} -RESPUESTAS_SUBTITULO : String[]\n+equipoPrincipal : Equipo\n+listaNuevosPersonajes : Vector&lt;String&gt;\n+ControlBuclePrincipal()\n-buclePrincipal()\n-opcionCrearPersonaje():void\n-opciónListadoTextos():void\n-opcionImportarTextos():void\n-opciónExportarTextos():void\n{static} +main(String[]):void\n}\n\nClass PersonajeFicha{\n-datosImportados : Vector&lt;String&gt;\n-nombrePersonaje : String\n-nombreJugador : String\n-profesion : RasgoProfesiones\n-raza : RasgoRazas\n-armadura : RasgoArmaduras\n-arma : RasgoArmas\n-cosaEquipo : Equipo\n-totalPersonajes : int\n-posicionPersonaje : int\n\n+PersonajeFicha()\n+toString():String\n+toStringCsv():String\n+importarPersonajeFichaCsvToEquipo():Equipo\n+importarLineaCsvToPersonajeFicha(String):PersonajeFicha\n+getNombreJugador():String\n+getNombrePersonaje():String\n+getRaza():RasgosRazas\n+getProfesion():RasgosProfesiones\n+getArmadura():RasgosArmaduras\n+getArma():RasgosArmas\n+setNombrePersonaje(String):Void\n+setNombreJugador(String):Void\n+setRaza(RasgoRazas):Void\n+setProfesion(RasgoProfesiones):Void\n+setArmadura(RasgoArmaduras):Void\n+setArma(RasgoArmas):Void\n}\n\nClass Equipo{\n+posicion : int\n+listaDatos : Vector&lt;PersonajeFicha&gt;\n+Equipo()\n+añadirNuevoPersonaje(PersonajeFicha)\n+consultarPersonajePorNumero(int)\n+consultarNumeroDePersonajes()\n+tipoXToText()\n+formatearEquipoToCsv()\n}\n\nEnum Profesion{\nBardo\nAsesino\nMago\nGuerrero\n}\n\nEnum Raza{\nHumano\nElfo\nOrco\nEnano\n}\n\nEnum Armadura{\nPesada\ncuero\nTunica\n}\n\nEnum Arma{\nHacha\nDaga\nEspada\nGrimorio\n}\n\n\n\n@enduml&quot;,&quot;format&quot;:&quot;svg&quot;}" id="dVZPoZPPNNkV3oezP2lC-0">
          <mxCell style="shape=image;noLabel=1;verticalAlign=top;aspect=fixed;imageAspect=0;image=data:image/svg+xml,PD94bWwgdmVyc2lvbj0iMS4wIiBlbmNvZGluZz0idXMtYXNjaWkiIHN0YW5kYWxvbmU9Im5vIj8+PHN2ZyB4bWxucz0iaHR0cDovL3d3dy53My5vcmcvMjAwMC9zdmciIHhtbG5zOnhsaW5rPSJodHRwOi8vd3d3LnczLm9yZy8xOTk5L3hsaW5rIiBjb250ZW50U3R5bGVUeXBlPSJ0ZXh0L2NzcyIgaGVpZ2h0PSIxMjQ0cHgiIHByZXNlcnZlQXNwZWN0UmF0aW89Im5vbmUiIHN0eWxlPSJ3aWR0aDoyMzczcHg7aGVpZ2h0OjEyNDRweDtiYWNrZ3JvdW5kOiNGRkZGRkY7IiB2ZXJzaW9uPSIxLjEiIHZpZXdCb3g9IjAgMCAyMzczIDEyNDQiIHdpZHRoPSIyMzczcHgiIHpvb21BbmRQYW49Im1hZ25pZnkiPjxkZWZzLz48Zz48IS0tY2xhc3MgVmlzdGFHZW5lcmFsLS0+PGcgaWQ9ImVsZW1fVmlzdGFHZW5lcmFsIj48cmVjdCBjb2RlTGluZT0iMzkiIGZpbGw9IiNGMUYxRjEiIGhlaWdodD0iMTUyLjg5MDYiIGlkPSJWaXN0YUdlbmVyYWwiIHJ4PSIyLjUiIHJ5PSIyLjUiIHN0eWxlPSJzdHJva2U6IzE4MTgxODtzdHJva2Utd2lkdGg6MC41OyIgd2lkdGg9IjIzMSIgeD0iOTY5LjUiIHk9IjgzMC41Ii8+PGVsbGlwc2UgY3g9IjEwMzguNzUiIGN5PSI4NDYuNSIgZmlsbD0iI0FERDFCMiIgcng9IjExIiByeT0iMTEiIHN0eWxlPSJzdHJva2U6IzE4MTgxODtzdHJva2Utd2lkdGg6MS4wOyIvPjxwYXRoIGQ9Ik0xMDM2LjM3NSw4NTAuNzUgTDEwMzYuMzc1LDg1Mi41IEwxMDQxLjMxMjUsODUyLjUgTDEwNDEuMzEyNSw4NTAuNzUgTDEwMzYuMzc1LDg1MC43NSBaIE0xMDM3LjA2MjUsODUxLjQzNzUgUTEwMzcuMDYyNSw4NTEuNDM3NSAxMDM3LjA2MjUsODQyLjI1IEwxMDM1LjMxMjUsODQyLjI1IFExMDM1LjMxMjUsODQyLjI1IDEwMzUuMzEyNSw4NTEuNDM3NSBMMTAzNy4wNjI1LDg1MS40Mzc1IFogTTEwNDAuNjI1LDg1MS40Mzc1IEwxMDQyLjM3NSw4NTEuNDM3NSBRMTA0Mi4zNzUsODUxLjQzNzUgMTA0Mi4zNzUsODQ4LjYyNSBMMTA0MC42MjUsODQ4LjYyNSBRMTA0MC42MjUsODQ4LjYyNSAxMDQwLjYyNSw4NTEuNDM3NSBaIE0xMDQwLjYyNSw4NDIuMjUgUTEwNDAuNjI1LDg0Mi4yNSAxMDQwLjYyNSw4NDUuMDYyNSBMMTA0Mi4zNzUsODQ1LjA2MjUgUTEwNDIuMzc1LDg0NS4wNjI1IDEwNDIuMzc1LDg0Mi4yNSBMMTA0MC42MjUsODQyLjI1IFogTTEwMzYuMzc1LDg0Mi45Mzc1IEwxMDQxLjMxMjUsODQyLjkzNzUgTDEwNDEuMzEyNSw4NDEuMTg3NSBMMTAzNi4zNzUsODQxLjE4NzUgTDEwMzYuMzc1LDg0Mi45Mzc1IFogIiBmaWxsPSIjMDAwMDAwIi8+PHRleHQgZmlsbD0iIzAwMDAwMCIgZm9udC1mYW1pbHk9InNhbnMtc2VyaWYiIGZvbnQtc2l6ZT0iMTQiIGxlbmd0aEFkanVzdD0ic3BhY2luZyIgdGV4dExlbmd0aD0iODQiIHg9IjEwNTkuMjUiIHk9Ijg1Mi4yNDIyIj5WaXN0YUdlbmVyYWw8L3RleHQ+PGxpbmUgc3R5bGU9InN0cm9rZTojMTgxODE4O3N0cm9rZS13aWR0aDowLjU7IiB4MT0iOTcwLjUiIHgyPSIxMTk5LjUiIHkxPSI4NjIuNSIgeTI9Ijg2Mi41Ii8+PHRleHQgZmlsbD0iIzAwMDAwMCIgZm9udC1mYW1pbHk9InNhbnMtc2VyaWYiIGZvbnQtc2l6ZT0iMTQiIGxlbmd0aEFkanVzdD0ic3BhY2luZyIgdGV4dExlbmd0aD0iMjEyIiB4PSI5NzUuNSIgeT0iODc5LjczNDQiPntmaW5hbH0tVGV4dG9QZXRpY2lvbiA6IFN0cmluZzwvdGV4dD48dGV4dCBmaWxsPSIjMDAwMDAwIiBmb250LWZhbWlseT0ic2Fucy1zZXJpZiIgZm9udC1zaXplPSIxNCIgbGVuZ3RoQWRqdXN0PSJzcGFjaW5nIiB0ZXh0LWRlY29yYXRpb249InVuZGVybGluZSIgdGV4dExlbmd0aD0iMTc3IiB4PSI5NzUuNSIgeT0iODk0LjcxODgiPntmaW5hbH0tZW50cmFkYSA6IFNjYW5uZXI8L3RleHQ+PGxpbmUgc3R5bGU9InN0cm9rZTojMTgxODE4O3N0cm9rZS13aWR0aDowLjU7IiB4MT0iOTcwLjUiIHgyPSIxMTk5LjUiIHkxPSI5MDAuNDY4OCIgeTI9IjkwMC40Njg4Ii8+PGVsbGlwc2UgY3g9Ijk4MC41IiBjeT0iOTEzLjQ2MDkiIGZpbGw9IiM4NEJFODQiIHJ4PSIzIiByeT0iMyIgc3R5bGU9InN0cm9rZTojMDM4MDQ4O3N0cm9rZS13aWR0aDoxLjA7Ii8+PHRleHQgZmlsbD0iIzAwMDAwMCIgZm9udC1mYW1pbHk9InNhbnMtc2VyaWYiIGZvbnQtc2l6ZT0iMTQiIGxlbmd0aEFkanVzdD0ic3BhY2luZyIgdGV4dC1kZWNvcmF0aW9uPSJ1bmRlcmxpbmUiIHRleHRMZW5ndGg9Ijg2IiB4PSI5ODkuNSIgeT0iOTE3LjcwMzEiPmdldEVudHJhZGEoKTwvdGV4dD48ZWxsaXBzZSBjeD0iOTgwLjUiIGN5PSI5MjguNDQ1MyIgZmlsbD0iIzg0QkU4NCIgcng9IjMiIHJ5PSIzIiBzdHlsZT0ic3Ryb2tlOiMwMzgwNDg7c3Ryb2tlLXdpZHRoOjEuMDsiLz48dGV4dCBmaWxsPSIjMDAwMDAwIiBmb250LWZhbWlseT0ic2Fucy1zZXJpZiIgZm9udC1zaXplPSIxNCIgbGVuZ3RoQWRqdXN0PSJzcGFjaW5nIiB0ZXh0LWRlY29yYXRpb249InVuZGVybGluZSIgdGV4dExlbmd0aD0iOTMiIHg9Ijk4OS41IiB5PSI5MzIuNjg3NSI+cGVkaXJFbnRlcm8oKTwvdGV4dD48ZWxsaXBzZSBjeD0iOTgwLjUiIGN5PSI5NDMuNDI5NyIgZmlsbD0iIzg0QkU4NCIgcng9IjMiIHJ5PSIzIiBzdHlsZT0ic3Ryb2tlOiMwMzgwNDg7c3Ryb2tlLXdpZHRoOjEuMDsiLz48dGV4dCBmaWxsPSIjMDAwMDAwIiBmb250LWZhbWlseT0ic2Fucy1zZXJpZiIgZm9udC1zaXplPSIxNCIgbGVuZ3RoQWRqdXN0PSJzcGFjaW5nIiB0ZXh0LWRlY29yYXRpb249InVuZGVybGluZSIgdGV4dExlbmd0aD0iMTM1IiB4PSI5ODkuNSIgeT0iOTQ3LjY3MTkiPnBlZGlyRW50ZXJvKFN0cmluZyk8L3RleHQ+PGVsbGlwc2UgY3g9Ijk4MC41IiBjeT0iOTU4LjQxNDEiIGZpbGw9IiM4NEJFODQiIHJ4PSIzIiByeT0iMyIgc3R5bGU9InN0cm9rZTojMDM4MDQ4O3N0cm9rZS13aWR0aDoxLjA7Ii8+PHRleHQgZmlsbD0iIzAwMDAwMCIgZm9udC1mYW1pbHk9InNhbnMtc2VyaWYiIGZvbnQtc2l6ZT0iMTQiIGxlbmd0aEFkanVzdD0ic3BhY2luZyIgdGV4dC1kZWNvcmF0aW9uPSJ1bmRlcmxpbmUiIHRleHRMZW5ndGg9IjIwNSIgeD0iOTg5LjUiIHk9Ijk2Mi42NTYzIj5wZWRpckVudGVybyhTdHJpbmcsIGludCwgaW50KTwvdGV4dD48ZWxsaXBzZSBjeD0iOTgwLjUiIGN5PSI5NzMuMzk4NCIgZmlsbD0iIzg0QkU4NCIgcng9IjMiIHJ5PSIzIiBzdHlsZT0ic3Ryb2tlOiMwMzgwNDg7c3Ryb2tlLXdpZHRoOjEuMDsiLz48dGV4dCBmaWxsPSIjMDAwMDAwIiBmb250LWZhbWlseT0ic2Fucy1zZXJpZiIgZm9udC1zaXplPSIxNCIgbGVuZ3RoQWRqdXN0PSJzcGFjaW5nIiB0ZXh0LWRlY29yYXRpb249InVuZGVybGluZSIgdGV4dExlbmd0aD0iMTcwIiB4PSI5ODkuNSIgeT0iOTc3LjY0MDYiPnBlZGlyRW50ZXJvQWx0KGludCwgaW50KTwvdGV4dD48L2c+PCEtLWNsYXNzIFZpc3RhR2VuZXJhbEV4Y2VwdGlvbi0tPjxnIGlkPSJlbGVtX1Zpc3RhR2VuZXJhbEV4Y2VwdGlvbiI+PHJlY3QgY29kZUxpbmU9IjIxIiBmaWxsPSIjRjFGMUYxIiBoZWlnaHQ9IjQ4IiBpZD0iVmlzdGFHZW5lcmFsRXhjZXB0aW9uIiByeD0iMi41IiByeT0iMi41IiBzdHlsZT0ic3Ryb2tlOiMxODE4MTg7c3Ryb2tlLXdpZHRoOjAuNTsiIHdpZHRoPSIxNzkiIHg9Ijk5NS41IiB5PSIxMDY2Ii8+PGVsbGlwc2UgY3g9IjEwMTAuNSIgY3k9IjEwODIiIGZpbGw9IiNBREQxQjIiIHJ4PSIxMSIgcnk9IjExIiBzdHlsZT0ic3Ryb2tlOiMxODE4MTg7c3Ryb2tlLXdpZHRoOjEuMDsiLz48cGF0aCBkPSJNMTAwOC4xMjUsMTA4Ni4yNSBMMTAwOC4xMjUsMTA4OCBMMTAxMy4wNjI1LDEwODggTDEwMTMuMDYyNSwxMDg2LjI1IEwxMDA4LjEyNSwxMDg2LjI1IFogTTEwMDguODEyNSwxMDg2LjkzNzUgUTEwMDguODEyNSwxMDg2LjkzNzUgMTAwOC44MTI1LDEwNzcuNzUgTDEwMDcuMDYyNSwxMDc3Ljc1IFExMDA3LjA2MjUsMTA3Ny43NSAxMDA3LjA2MjUsMTA4Ni45Mzc1IEwxMDA4LjgxMjUsMTA4Ni45Mzc1IFogTTEwMTIuMzc1LDEwODYuOTM3NSBMMTAxNC4xMjUsMTA4Ni45Mzc1IFExMDE0LjEyNSwxMDg2LjkzNzUgMTAxNC4xMjUsMTA4NC4xMjUgTDEwMTIuMzc1LDEwODQuMTI1IFExMDEyLjM3NSwxMDg0LjEyNSAxMDEyLjM3NSwxMDg2LjkzNzUgWiBNMTAxMi4zNzUsMTA3Ny43NSBRMTAxMi4zNzUsMTA3Ny43NSAxMDEyLjM3NSwxMDgwLjU2MjUgTDEwMTQuMTI1LDEwODAuNTYyNSBRMTAxNC4xMjUsMTA4MC41NjI1IDEwMTQuMTI1LDEwNzcuNzUgTDEwMTIuMzc1LDEwNzcuNzUgWiBNMTAwOC4xMjUsMTA3OC40Mzc1IEwxMDEzLjA2MjUsMTA3OC40Mzc1IEwxMDEzLjA2MjUsMTA3Ni42ODc1IEwxMDA4LjEyNSwxMDc2LjY4NzUgTDEwMDguMTI1LDEwNzguNDM3NSBaICIgZmlsbD0iIzAwMDAwMCIvPjx0ZXh0IGZpbGw9IiMwMDAwMDAiIGZvbnQtZmFtaWx5PSJzYW5zLXNlcmlmIiBmb250LXNpemU9IjE0IiBsZW5ndGhBZGp1c3Q9InNwYWNpbmciIHRleHRMZW5ndGg9IjE0NyIgeD0iMTAyNC41IiB5PSIxMDg3Ljc0MjIiPlZpc3RhR2VuZXJhbEV4Y2VwdGlvbjwvdGV4dD48bGluZSBzdHlsZT0ic3Ryb2tlOiMxODE4MTg7c3Ryb2tlLXdpZHRoOjAuNTsiIHgxPSI5OTYuNSIgeDI9IjExNzMuNSIgeTE9IjEwOTgiIHkyPSIxMDk4Ii8+PGxpbmUgc3R5bGU9InN0cm9rZTojMTgxODE4O3N0cm9rZS13aWR0aDowLjU7IiB4MT0iOTk2LjUiIHgyPSIxMTczLjUiIHkxPSIxMTA2IiB5Mj0iMTEwNiIvPjwvZz48IS0tY2xhc3MgRXhjZXB0aW9uLS0+PGcgaWQ9ImVsZW1fRXhjZXB0aW9uIj48cmVjdCBmaWxsPSIjRjFGMUYxIiBoZWlnaHQ9IjQ4IiBpZD0iRXhjZXB0aW9uIiByeD0iMi41IiByeT0iMi41IiBzdHlsZT0ic3Ryb2tlOiMxODE4MTg7c3Ryb2tlLXdpZHRoOjAuNTsiIHdpZHRoPSI5NSIgeD0iMTAzNy41IiB5PSIxMTg5Ii8+PGVsbGlwc2UgY3g9IjEwNTIuNSIgY3k9IjEyMDUiIGZpbGw9IiNBREQxQjIiIHJ4PSIxMSIgcnk9IjExIiBzdHlsZT0ic3Ryb2tlOiMxODE4MTg7c3Ryb2tlLXdpZHRoOjEuMDsiLz48cGF0aCBkPSJNMTA1MC4xMjUsMTIwOS4yNSBMMTA1MC4xMjUsMTIxMSBMMTA1NS4wNjI1LDEyMTEgTDEwNTUuMDYyNSwxMjA5LjI1IEwxMDUwLjEyNSwxMjA5LjI1IFogTTEwNTAuODEyNSwxMjA5LjkzNzUgUTEwNTAuODEyNSwxMjA5LjkzNzUgMTA1MC44MTI1LDEyMDAuNzUgTDEwNDkuMDYyNSwxMjAwLjc1IFExMDQ5LjA2MjUsMTIwMC43NSAxMDQ5LjA2MjUsMTIwOS45Mzc1IEwxMDUwLjgxMjUsMTIwOS45Mzc1IFogTTEwNTQuMzc1LDEyMDkuOTM3NSBMMTA1Ni4xMjUsMTIwOS45Mzc1IFExMDU2LjEyNSwxMjA5LjkzNzUgMTA1Ni4xMjUsMTIwNy4xMjUgTDEwNTQuMzc1LDEyMDcuMTI1IFExMDU0LjM3NSwxMjA3LjEyNSAxMDU0LjM3NSwxMjA5LjkzNzUgWiBNMTA1NC4zNzUsMTIwMC43NSBRMTA1NC4zNzUsMTIwMC43NSAxMDU0LjM3NSwxMjAzLjU2MjUgTDEwNTYuMTI1LDEyMDMuNTYyNSBRMTA1Ni4xMjUsMTIwMy41NjI1IDEwNTYuMTI1LDEyMDAuNzUgTDEwNTQuMzc1LDEyMDAuNzUgWiBNMTA1MC4xMjUsMTIwMS40Mzc1IEwxMDU1LjA2MjUsMTIwMS40Mzc1IEwxMDU1LjA2MjUsMTE5OS42ODc1IEwxMDUwLjEyNSwxMTk5LjY4NzUgTDEwNTAuMTI1LDEyMDEuNDM3NSBaICIgZmlsbD0iIzAwMDAwMCIvPjx0ZXh0IGZpbGw9IiMwMDAwMDAiIGZvbnQtZmFtaWx5PSJzYW5zLXNlcmlmIiBmb250LXNpemU9IjE0IiBsZW5ndGhBZGp1c3Q9InNwYWNpbmciIHRleHRMZW5ndGg9IjYzIiB4PSIxMDY2LjUiIHk9IjEyMTAuNzQyMiI+RXhjZXB0aW9uPC90ZXh0PjxsaW5lIHN0eWxlPSJzdHJva2U6IzE4MTgxODtzdHJva2Utd2lkdGg6MC41OyIgeDE9IjEwMzguNSIgeDI9IjExMzEuNSIgeTE9IjEyMjEiIHkyPSIxMjIxIi8+PGxpbmUgc3R5bGU9InN0cm9rZTojMTgxODE4O3N0cm9rZS13aWR0aDowLjU7IiB4MT0iMTAzOC41IiB4Mj0iMTEzMS41IiB5MT0iMTIyOSIgeTI9IjEyMjkiLz48L2c+PCEtLWNsYXNzIFBlcnNvbmFqZUZpY2hhLS0+PGcgaWQ9ImVsZW1fUGVyc29uYWplRmljaGEiPjxyZWN0IGNvZGVMaW5lPSI4NCIgZmlsbD0iI0YxRjFGMSIgaGVpZ2h0PSI0NTIuNTc4MSIgaWQ9IlBlcnNvbmFqZUZpY2hhIiByeD0iMi41IiByeT0iMi41IiBzdHlsZT0ic3Ryb2tlOiMxODE4MTg7c3Ryb2tlLXdpZHRoOjAuNTsiIHdpZHRoPSI0MTQiIHg9IjQ2OSIgeT0iMjk1Ii8+PGVsbGlwc2UgY3g9IjYyMi43NSIgY3k9IjMxMSIgZmlsbD0iI0FERDFCMiIgcng9IjExIiByeT0iMTEiIHN0eWxlPSJzdHJva2U6IzE4MTgxODtzdHJva2Utd2lkdGg6MS4wOyIvPjxwYXRoIGQ9Ik02MjAuMzc1LDMxNS4yNSBMNjIwLjM3NSwzMTcgTDYyNS4zMTI1LDMxNyBMNjI1LjMxMjUsMzE1LjI1IEw2MjAuMzc1LDMxNS4yNSBaIE02MjEuMDYyNSwzMTUuOTM3NSBRNjIxLjA2MjUsMzE1LjkzNzUgNjIxLjA2MjUsMzA2Ljc1IEw2MTkuMzEyNSwzMDYuNzUgUTYxOS4zMTI1LDMwNi43NSA2MTkuMzEyNSwzMTUuOTM3NSBMNjIxLjA2MjUsMzE1LjkzNzUgWiBNNjI0LjYyNSwzMTUuOTM3NSBMNjI2LjM3NSwzMTUuOTM3NSBRNjI2LjM3NSwzMTUuOTM3NSA2MjYuMzc1LDMxMy4xMjUgTDYyNC42MjUsMzEzLjEyNSBRNjI0LjYyNSwzMTMuMTI1IDYyNC42MjUsMzE1LjkzNzUgWiBNNjI0LjYyNSwzMDYuNzUgUTYyNC42MjUsMzA2Ljc1IDYyNC42MjUsMzA5LjU2MjUgTDYyNi4zNzUsMzA5LjU2MjUgUTYyNi4zNzUsMzA5LjU2MjUgNjI2LjM3NSwzMDYuNzUgTDYyNC42MjUsMzA2Ljc1IFogTTYyMC4zNzUsMzA3LjQzNzUgTDYyNS4zMTI1LDMwNy40Mzc1IEw2MjUuMzEyNSwzMDUuNjg3NSBMNjIwLjM3NSwzMDUuNjg3NSBMNjIwLjM3NSwzMDcuNDM3NSBaICIgZmlsbD0iIzAwMDAwMCIvPjx0ZXh0IGZpbGw9IiMwMDAwMDAiIGZvbnQtZmFtaWx5PSJzYW5zLXNlcmlmIiBmb250LXNpemU9IjE0IiBsZW5ndGhBZGp1c3Q9InNwYWNpbmciIHRleHRMZW5ndGg9Ijk4IiB4PSI2NDMuMjUiIHk9IjMxNi43NDIyIj5QZXJzb25hamVGaWNoYTwvdGV4dD48bGluZSBzdHlsZT0ic3Ryb2tlOiMxODE4MTg7c3Ryb2tlLXdpZHRoOjAuNTsiIHgxPSI0NzAiIHgyPSI4ODIiIHkxPSIzMjciIHkyPSIzMjciLz48cmVjdCBmaWxsPSJub25lIiBoZWlnaHQ9IjYiIHN0eWxlPSJzdHJva2U6I0M4MjkzMDtzdHJva2Utd2lkdGg6MS4wOyIgd2lkdGg9IjYiIHg9IjQ3NyIgeT0iMzM2Ljk5MjIiLz48dGV4dCBmaWxsPSIjMDAwMDAwIiBmb250LWZhbWlseT0ic2Fucy1zZXJpZiIgZm9udC1zaXplPSIxNCIgbGVuZ3RoQWRqdXN0PSJzcGFjaW5nIiB0ZXh0TGVuZ3RoPSIyMjUiIHg9IjQ4OSIgeT0iMzQ0LjIzNDQiPmRhdG9zSW1wb3J0YWRvcyA6IFZlY3RvciZsdDtTdHJpbmcmZ3Q7PC90ZXh0PjxyZWN0IGZpbGw9Im5vbmUiIGhlaWdodD0iNiIgc3R5bGU9InN0cm9rZTojQzgyOTMwO3N0cm9rZS13aWR0aDoxLjA7IiB3aWR0aD0iNiIgeD0iNDc3IiB5PSIzNTEuOTc2NiIvPjx0ZXh0IGZpbGw9IiMwMDAwMDAiIGZvbnQtZmFtaWx5PSJzYW5zLXNlcmlmIiBmb250LXNpemU9IjE0IiBsZW5ndGhBZGp1c3Q9InNwYWNpbmciIHRleHRMZW5ndGg9IjE2OSIgeD0iNDg5IiB5PSIzNTkuMjE4OCI+bm9tYnJlUGVyc29uYWplIDogU3RyaW5nPC90ZXh0PjxyZWN0IGZpbGw9Im5vbmUiIGhlaWdodD0iNiIgc3R5bGU9InN0cm9rZTojQzgyOTMwO3N0cm9rZS13aWR0aDoxLjA7IiB3aWR0aD0iNiIgeD0iNDc3IiB5PSIzNjYuOTYwOSIvPjx0ZXh0IGZpbGw9IiMwMDAwMDAiIGZvbnQtZmFtaWx5PSJzYW5zLXNlcmlmIiBmb250LXNpemU9IjE0IiBsZW5ndGhBZGp1c3Q9InNwYWNpbmciIHRleHRMZW5ndGg9IjE1NiIgeD0iNDg5IiB5PSIzNzQuMjAzMSI+bm9tYnJlSnVnYWRvciA6IFN0cmluZzwvdGV4dD48cmVjdCBmaWxsPSJub25lIiBoZWlnaHQ9IjYiIHN0eWxlPSJzdHJva2U6I0M4MjkzMDtzdHJva2Utd2lkdGg6MS4wOyIgd2lkdGg9IjYiIHg9IjQ3NyIgeT0iMzgxLjk0NTMiLz48dGV4dCBmaWxsPSIjMDAwMDAwIiBmb250LWZhbWlseT0ic2Fucy1zZXJpZiIgZm9udC1zaXplPSIxNCIgbGVuZ3RoQWRqdXN0PSJzcGFjaW5nIiB0ZXh0TGVuZ3RoPSIxOTYiIHg9IjQ4OSIgeT0iMzg5LjE4NzUiPnByb2Zlc2lvbiA6IFJhc2dvUHJvZmVzaW9uZXM8L3RleHQ+PHJlY3QgZmlsbD0ibm9uZSIgaGVpZ2h0PSI2IiBzdHlsZT0ic3Ryb2tlOiNDODI5MzA7c3Ryb2tlLXdpZHRoOjEuMDsiIHdpZHRoPSI2IiB4PSI0NzciIHk9IjM5Ni45Mjk3Ii8+PHRleHQgZmlsbD0iIzAwMDAwMCIgZm9udC1mYW1pbHk9InNhbnMtc2VyaWYiIGZvbnQtc2l6ZT0iMTQiIGxlbmd0aEFkanVzdD0ic3BhY2luZyIgdGV4dExlbmd0aD0iMTE5IiB4PSI0ODkiIHk9IjQwNC4xNzE5Ij5yYXphIDogUmFzZ29SYXphczwvdGV4dD48cmVjdCBmaWxsPSJub25lIiBoZWlnaHQ9IjYiIHN0eWxlPSJzdHJva2U6I0M4MjkzMDtzdHJva2Utd2lkdGg6MS4wOyIgd2lkdGg9IjYiIHg9IjQ3NyIgeT0iNDExLjkxNDEiLz48dGV4dCBmaWxsPSIjMDAwMDAwIiBmb250LWZhbWlseT0ic2Fucy1zZXJpZiIgZm9udC1zaXplPSIxNCIgbGVuZ3RoQWRqdXN0PSJzcGFjaW5nIiB0ZXh0TGVuZ3RoPSIxNzciIHg9IjQ4OSIgeT0iNDE5LjE1NjMiPmFybWFkdXJhIDogUmFzZ29Bcm1hZHVyYXM8L3RleHQ+PHJlY3QgZmlsbD0ibm9uZSIgaGVpZ2h0PSI2IiBzdHlsZT0ic3Ryb2tlOiNDODI5MzA7c3Ryb2tlLXdpZHRoOjEuMDsiIHdpZHRoPSI2IiB4PSI0NzciIHk9IjQyNi44OTg0Ii8+PHRleHQgZmlsbD0iIzAwMDAwMCIgZm9udC1mYW1pbHk9InNhbnMtc2VyaWYiIGZvbnQtc2l6ZT0iMTQiIGxlbmd0aEFkanVzdD0ic3BhY2luZyIgdGV4dExlbmd0aD0iMTIxIiB4PSI0ODkiIHk9IjQzNC4xNDA2Ij5hcm1hIDogUmFzZ29Bcm1hczwvdGV4dD48cmVjdCBmaWxsPSJub25lIiBoZWlnaHQ9IjYiIHN0eWxlPSJzdHJva2U6I0M4MjkzMDtzdHJva2Utd2lkdGg6MS4wOyIgd2lkdGg9IjYiIHg9IjQ3NyIgeT0iNDQxLjg4MjgiLz48dGV4dCBmaWxsPSIjMDAwMDAwIiBmb250LWZhbWlseT0ic2Fucy1zZXJpZiIgZm9udC1zaXplPSIxNCIgbGVuZ3RoQWRqdXN0PSJzcGFjaW5nIiB0ZXh0TGVuZ3RoPSIxMzMiIHg9IjQ4OSIgeT0iNDQ5LjEyNSI+Y29zYUVxdWlwbyA6IEVxdWlwbzwvdGV4dD48cmVjdCBmaWxsPSJub25lIiBoZWlnaHQ9IjYiIHN0eWxlPSJzdHJva2U6I0M4MjkzMDtzdHJva2Utd2lkdGg6MS4wOyIgd2lkdGg9IjYiIHg9IjQ3NyIgeT0iNDU2Ljg2NzIiLz48dGV4dCBmaWxsPSIjMDAwMDAwIiBmb250LWZhbWlseT0ic2Fucy1zZXJpZiIgZm9udC1zaXplPSIxNCIgbGVuZ3RoQWRqdXN0PSJzcGFjaW5nIiB0ZXh0TGVuZ3RoPSIxNDciIHg9IjQ4OSIgeT0iNDY0LjEwOTQiPnRvdGFsUGVyc29uYWplcyA6IGludDwvdGV4dD48cmVjdCBmaWxsPSJub25lIiBoZWlnaHQ9IjYiIHN0eWxlPSJzdHJva2U6I0M4MjkzMDtzdHJva2Utd2lkdGg6MS4wOyIgd2lkdGg9IjYiIHg9IjQ3NyIgeT0iNDcxLjg1MTYiLz48dGV4dCBmaWxsPSIjMDAwMDAwIiBmb250LWZhbWlseT0ic2Fucy1zZXJpZiIgZm9udC1zaXplPSIxNCIgbGVuZ3RoQWRqdXN0PSJzcGFjaW5nIiB0ZXh0TGVuZ3RoPSIxNjEiIHg9IjQ4OSIgeT0iNDc5LjA5MzgiPnBvc2ljaW9uUGVyc29uYWplIDogaW50PC90ZXh0PjxsaW5lIHN0eWxlPSJzdHJva2U6IzE4MTgxODtzdHJva2Utd2lkdGg6MC41OyIgeDE9IjQ3MCIgeDI9Ijg4MiIgeTE9IjQ4NC44NDM4IiB5Mj0iNDg0Ljg0MzgiLz48ZWxsaXBzZSBjeD0iNDgwIiBjeT0iNDk3LjgzNTkiIGZpbGw9IiM4NEJFODQiIHJ4PSIzIiByeT0iMyIgc3R5bGU9InN0cm9rZTojMDM4MDQ4O3N0cm9rZS13aWR0aDoxLjA7Ii8+PHRleHQgZmlsbD0iIzAwMDAwMCIgZm9udC1mYW1pbHk9InNhbnMtc2VyaWYiIGZvbnQtc2l6ZT0iMTQiIGxlbmd0aEFkanVzdD0ic3BhY2luZyIgdGV4dExlbmd0aD0iMTE0IiB4PSI0ODkiIHk9IjUwMi4wNzgxIj5QZXJzb25hamVGaWNoYSgpPC90ZXh0PjxlbGxpcHNlIGN4PSI0ODAiIGN5PSI1MTIuODIwMyIgZmlsbD0iIzg0QkU4NCIgcng9IjMiIHJ5PSIzIiBzdHlsZT0ic3Ryb2tlOiMwMzgwNDg7c3Ryb2tlLXdpZHRoOjEuMDsiLz48dGV4dCBmaWxsPSIjMDAwMDAwIiBmb250LWZhbWlseT0ic2Fucy1zZXJpZiIgZm9udC1zaXplPSIxNCIgbGVuZ3RoQWRqdXN0PSJzcGFjaW5nIiB0ZXh0TGVuZ3RoPSIxMjEiIHg9IjQ4OSIgeT0iNTE3LjA2MjUiPnRvU3RyaW5nKCk6U3RyaW5nPC90ZXh0PjxlbGxpcHNlIGN4PSI0ODAiIGN5PSI1MjcuODA0NyIgZmlsbD0iIzg0QkU4NCIgcng9IjMiIHJ5PSIzIiBzdHlsZT0ic3Ryb2tlOiMwMzgwNDg7c3Ryb2tlLXdpZHRoOjEuMDsiLz48dGV4dCBmaWxsPSIjMDAwMDAwIiBmb250LWZhbWlseT0ic2Fucy1zZXJpZiIgZm9udC1zaXplPSIxNCIgbGVuZ3RoQWRqdXN0PSJzcGFjaW5nIiB0ZXh0TGVuZ3RoPSIxNDIiIHg9IjQ4OSIgeT0iNTMyLjA0NjkiPnRvU3RyaW5nQ3N2KCk6U3RyaW5nPC90ZXh0PjxlbGxpcHNlIGN4PSI0ODAiIGN5PSI1NDIuNzg5MSIgZmlsbD0iIzg0QkU4NCIgcng9IjMiIHJ5PSIzIiBzdHlsZT0ic3Ryb2tlOiMwMzgwNDg7c3Ryb2tlLXdpZHRoOjEuMDsiLz48dGV4dCBmaWxsPSIjMDAwMDAwIiBmb250LWZhbWlseT0ic2Fucy1zZXJpZiIgZm9udC1zaXplPSIxNCIgbGVuZ3RoQWRqdXN0PSJzcGFjaW5nIiB0ZXh0TGVuZ3RoPSIyOTciIHg9IjQ4OSIgeT0iNTQ3LjAzMTMiPmltcG9ydGFyUGVyc29uYWplRmljaGFDc3ZUb0VxdWlwbygpOkVxdWlwbzwvdGV4dD48ZWxsaXBzZSBjeD0iNDgwIiBjeT0iNTU3Ljc3MzQiIGZpbGw9IiM4NEJFODQiIHJ4PSIzIiByeT0iMyIgc3R5bGU9InN0cm9rZTojMDM4MDQ4O3N0cm9rZS13aWR0aDoxLjA7Ii8+PHRleHQgZmlsbD0iIzAwMDAwMCIgZm9udC1mYW1pbHk9InNhbnMtc2VyaWYiIGZvbnQtc2l6ZT0iMTQiIGxlbmd0aEFkanVzdD0ic3BhY2luZyIgdGV4dExlbmd0aD0iMzg4IiB4PSI0ODkiIHk9IjU2Mi4wMTU2Ij5pbXBvcnRhckxpbmVhQ3N2VG9QZXJzb25hamVGaWNoYShTdHJpbmcpOlBlcnNvbmFqZUZpY2hhPC90ZXh0PjxlbGxpcHNlIGN4PSI0ODAiIGN5PSI1NzIuNzU3OCIgZmlsbD0iIzg0QkU4NCIgcng9IjMiIHJ5PSIzIiBzdHlsZT0ic3Ryb2tlOiMwMzgwNDg7c3Ryb2tlLXdpZHRoOjEuMDsiLz48dGV4dCBmaWxsPSIjMDAwMDAwIiBmb250LWZhbWlseT0ic2Fucy1zZXJpZiIgZm9udC1zaXplPSIxNCIgbGVuZ3RoQWRqdXN0PSJzcGFjaW5nIiB0ZXh0TGVuZ3RoPSIxNzkiIHg9IjQ4OSIgeT0iNTc3Ij5nZXROb21icmVKdWdhZG9yKCk6U3RyaW5nPC90ZXh0PjxlbGxpcHNlIGN4PSI0ODAiIGN5PSI1ODcuNzQyMiIgZmlsbD0iIzg0QkU4NCIgcng9IjMiIHJ5PSIzIiBzdHlsZT0ic3Ryb2tlOiMwMzgwNDg7c3Ryb2tlLXdpZHRoOjEuMDsiLz48dGV4dCBmaWxsPSIjMDAwMDAwIiBmb250LWZhbWlseT0ic2Fucy1zZXJpZiIgZm9udC1zaXplPSIxNCIgbGVuZ3RoQWRqdXN0PSJzcGFjaW5nIiB0ZXh0TGVuZ3RoPSIxOTIiIHg9IjQ4OSIgeT0iNTkxLjk4NDQiPmdldE5vbWJyZVBlcnNvbmFqZSgpOlN0cmluZzwvdGV4dD48ZWxsaXBzZSBjeD0iNDgwIiBjeT0iNjAyLjcyNjYiIGZpbGw9IiM4NEJFODQiIHJ4PSIzIiByeT0iMyIgc3R5bGU9InN0cm9rZTojMDM4MDQ4O3N0cm9rZS13aWR0aDoxLjA7Ii8+PHRleHQgZmlsbD0iIzAwMDAwMCIgZm9udC1mYW1pbHk9InNhbnMtc2VyaWYiIGZvbnQtc2l6ZT0iMTQiIGxlbmd0aEFkanVzdD0ic3BhY2luZyIgdGV4dExlbmd0aD0iMTQ5IiB4PSI0ODkiIHk9IjYwNi45Njg4Ij5nZXRSYXphKCk6UmFzZ29zUmF6YXM8L3RleHQ+PGVsbGlwc2UgY3g9IjQ4MCIgY3k9IjYxNy43MTA5IiBmaWxsPSIjODRCRTg0IiByeD0iMyIgcnk9IjMiIHN0eWxlPSJzdHJva2U6IzAzODA0ODtzdHJva2Utd2lkdGg6MS4wOyIvPjx0ZXh0IGZpbGw9IiMwMDAwMDAiIGZvbnQtZmFtaWx5PSJzYW5zLXNlcmlmIiBmb250LXNpemU9IjE0IiBsZW5ndGhBZGp1c3Q9InNwYWNpbmciIHRleHRMZW5ndGg9IjIyNiIgeD0iNDg5IiB5PSI2MjEuOTUzMSI+Z2V0UHJvZmVzaW9uKCk6UmFzZ29zUHJvZmVzaW9uZXM8L3RleHQ+PGVsbGlwc2UgY3g9IjQ4MCIgY3k9IjYzMi42OTUzIiBmaWxsPSIjODRCRTg0IiByeD0iMyIgcnk9IjMiIHN0eWxlPSJzdHJva2U6IzAzODA0ODtzdHJva2Utd2lkdGg6MS4wOyIvPjx0ZXh0IGZpbGw9IiMwMDAwMDAiIGZvbnQtZmFtaWx5PSJzYW5zLXNlcmlmIiBmb250LXNpemU9IjE0IiBsZW5ndGhBZGp1c3Q9InNwYWNpbmciIHRleHRMZW5ndGg9IjIwNyIgeD0iNDg5IiB5PSI2MzYuOTM3NSI+Z2V0QXJtYWR1cmEoKTpSYXNnb3NBcm1hZHVyYXM8L3RleHQ+PGVsbGlwc2UgY3g9IjQ4MCIgY3k9IjY0Ny42Nzk3IiBmaWxsPSIjODRCRTg0IiByeD0iMyIgcnk9IjMiIHN0eWxlPSJzdHJva2U6IzAzODA0ODtzdHJva2Utd2lkdGg6MS4wOyIvPjx0ZXh0IGZpbGw9IiMwMDAwMDAiIGZvbnQtZmFtaWx5PSJzYW5zLXNlcmlmIiBmb250LXNpemU9IjE0IiBsZW5ndGhBZGp1c3Q9InNwYWNpbmciIHRleHRMZW5ndGg9IjE1MSIgeD0iNDg5IiB5PSI2NTEuOTIxOSI+Z2V0QXJtYSgpOlJhc2dvc0FybWFzPC90ZXh0PjxlbGxpcHNlIGN4PSI0ODAiIGN5PSI2NjIuNjY0MSIgZmlsbD0iIzg0QkU4NCIgcng9IjMiIHJ5PSIzIiBzdHlsZT0ic3Ryb2tlOiMwMzgwNDg7c3Ryb2tlLXdpZHRoOjEuMDsiLz48dGV4dCBmaWxsPSIjMDAwMDAwIiBmb250LWZhbWlseT0ic2Fucy1zZXJpZiIgZm9udC1zaXplPSIxNCIgbGVuZ3RoQWRqdXN0PSJzcGFjaW5nIiB0ZXh0TGVuZ3RoPSIyMjAiIHg9IjQ4OSIgeT0iNjY2LjkwNjMiPnNldE5vbWJyZVBlcnNvbmFqZShTdHJpbmcpOlZvaWQ8L3RleHQ+PGVsbGlwc2UgY3g9IjQ4MCIgY3k9IjY3Ny42NDg0IiBmaWxsPSIjODRCRTg0IiByeD0iMyIgcnk9IjMiIHN0eWxlPSJzdHJva2U6IzAzODA0ODtzdHJva2Utd2lkdGg6MS4wOyIvPjx0ZXh0IGZpbGw9IiMwMDAwMDAiIGZvbnQtZmFtaWx5PSJzYW5zLXNlcmlmIiBmb250LXNpemU9IjE0IiBsZW5ndGhBZGp1c3Q9InNwYWNpbmciIHRleHRMZW5ndGg9IjIwNyIgeD0iNDg5IiB5PSI2ODEuODkwNiI+c2V0Tm9tYnJlSnVnYWRvcihTdHJpbmcpOlZvaWQ8L3RleHQ+PGVsbGlwc2UgY3g9IjQ4MCIgY3k9IjY5Mi42MzI4IiBmaWxsPSIjODRCRTg0IiByeD0iMyIgcnk9IjMiIHN0eWxlPSJzdHJva2U6IzAzODA0ODtzdHJva2Utd2lkdGg6MS4wOyIvPjx0ZXh0IGZpbGw9IiMwMDAwMDAiIGZvbnQtZmFtaWx5PSJzYW5zLXNlcmlmIiBmb250LXNpemU9IjE0IiBsZW5ndGhBZGp1c3Q9InNwYWNpbmciIHRleHRMZW5ndGg9IjE3MCIgeD0iNDg5IiB5PSI2OTYuODc1Ij5zZXRSYXphKFJhc2dvUmF6YXMpOlZvaWQ8L3RleHQ+PGVsbGlwc2UgY3g9IjQ4MCIgY3k9IjcwNy42MTcyIiBmaWxsPSIjODRCRTg0IiByeD0iMyIgcnk9IjMiIHN0eWxlPSJzdHJva2U6IzAzODA0ODtzdHJva2Utd2lkdGg6MS4wOyIvPjx0ZXh0IGZpbGw9IiMwMDAwMDAiIGZvbnQtZmFtaWx5PSJzYW5zLXNlcmlmIiBmb250LXNpemU9IjE0IiBsZW5ndGhBZGp1c3Q9InNwYWNpbmciIHRleHRMZW5ndGg9IjI0NyIgeD0iNDg5IiB5PSI3MTEuODU5NCI+c2V0UHJvZmVzaW9uKFJhc2dvUHJvZmVzaW9uZXMpOlZvaWQ8L3RleHQ+PGVsbGlwc2UgY3g9IjQ4MCIgY3k9IjcyMi42MDE2IiBmaWxsPSIjODRCRTg0IiByeD0iMyIgcnk9IjMiIHN0eWxlPSJzdHJva2U6IzAzODA0ODtzdHJva2Utd2lkdGg6MS4wOyIvPjx0ZXh0IGZpbGw9IiMwMDAwMDAiIGZvbnQtZmFtaWx5PSJzYW5zLXNlcmlmIiBmb250LXNpemU9IjE0IiBsZW5ndGhBZGp1c3Q9InNwYWNpbmciIHRleHRMZW5ndGg9IjIyOCIgeD0iNDg5IiB5PSI3MjYuODQzOCI+c2V0QXJtYWR1cmEoUmFzZ29Bcm1hZHVyYXMpOlZvaWQ8L3RleHQ+PGVsbGlwc2UgY3g9IjQ4MCIgY3k9IjczNy41ODU5IiBmaWxsPSIjODRCRTg0IiByeD0iMyIgcnk9IjMiIHN0eWxlPSJzdHJva2U6IzAzODA0ODtzdHJva2Utd2lkdGg6MS4wOyIvPjx0ZXh0IGZpbGw9IiMwMDAwMDAiIGZvbnQtZmFtaWx5PSJzYW5zLXNlcmlmIiBmb250LXNpemU9IjE0IiBsZW5ndGhBZGp1c3Q9InNwYWNpbmciIHRleHRMZW5ndGg9IjE3MiIgeD0iNDg5IiB5PSI3NDEuODI4MSI+c2V0QXJtYShSYXNnb0FybWFzKTpWb2lkPC90ZXh0PjwvZz48IS0tY2xhc3MgUGVyc29uYWplRmljaGFUZXN0LS0+PGcgaWQ9ImVsZW1fUGVyc29uYWplRmljaGFUZXN0Ij48cmVjdCBmaWxsPSIjRjFGMUYxIiBoZWlnaHQ9IjQ4IiBpZD0iUGVyc29uYWplRmljaGFUZXN0IiByeD0iMi41IiByeT0iMi41IiBzdHlsZT0ic3Ryb2tlOiMxODE4MTg7c3Ryb2tlLXdpZHRoOjAuNTsiIHdpZHRoPSIxNTgiIHg9IjciIHk9Ijg4MyIvPjxlbGxpcHNlIGN4PSIyMiIgY3k9Ijg5OSIgZmlsbD0iI0FERDFCMiIgcng9IjExIiByeT0iMTEiIHN0eWxlPSJzdHJva2U6IzE4MTgxODtzdHJva2Utd2lkdGg6MS4wOyIvPjxwYXRoIGQ9Ik0xOS42MjUsOTAzLjI1IEwxOS42MjUsOTA1IEwyNC41NjI1LDkwNSBMMjQuNTYyNSw5MDMuMjUgTDE5LjYyNSw5MDMuMjUgWiBNMjAuMzEyNSw5MDMuOTM3NSBRMjAuMzEyNSw5MDMuOTM3NSAyMC4zMTI1LDg5NC43NSBMMTguNTYyNSw4OTQuNzUgUTE4LjU2MjUsODk0Ljc1IDE4LjU2MjUsOTAzLjkzNzUgTDIwLjMxMjUsOTAzLjkzNzUgWiBNMjMuODc1LDkwMy45Mzc1IEwyNS42MjUsOTAzLjkzNzUgUTI1LjYyNSw5MDMuOTM3NSAyNS42MjUsOTAxLjEyNSBMMjMuODc1LDkwMS4xMjUgUTIzLjg3NSw5MDEuMTI1IDIzLjg3NSw5MDMuOTM3NSBaIE0yMy44NzUsODk0Ljc1IFEyMy44NzUsODk0Ljc1IDIzLjg3NSw4OTcuNTYyNSBMMjUuNjI1LDg5Ny41NjI1IFEyNS42MjUsODk3LjU2MjUgMjUuNjI1LDg5NC43NSBMMjMuODc1LDg5NC43NSBaIE0xOS42MjUsODk1LjQzNzUgTDI0LjU2MjUsODk1LjQzNzUgTDI0LjU2MjUsODkzLjY4NzUgTDE5LjYyNSw4OTMuNjg3NSBMMTkuNjI1LDg5NS40Mzc1IFogIiBmaWxsPSIjMDAwMDAwIi8+PHRleHQgZmlsbD0iIzAwMDAwMCIgZm9udC1mYW1pbHk9InNhbnMtc2VyaWYiIGZvbnQtc2l6ZT0iMTQiIGxlbmd0aEFkanVzdD0ic3BhY2luZyIgdGV4dExlbmd0aD0iMTI2IiB4PSIzNiIgeT0iOTA0Ljc0MjIiPlBlcnNvbmFqZUZpY2hhVGVzdDwvdGV4dD48bGluZSBzdHlsZT0ic3Ryb2tlOiMxODE4MTg7c3Ryb2tlLXdpZHRoOjAuNTsiIHgxPSI4IiB4Mj0iMTY0IiB5MT0iOTE1IiB5Mj0iOTE1Ii8+PGxpbmUgc3R5bGU9InN0cm9rZTojMTgxODE4O3N0cm9rZS13aWR0aDowLjU7IiB4MT0iOCIgeDI9IjE2NCIgeTE9IjkyMyIgeTI9IjkyMyIvPjwvZz48IS0tY2xhc3MgRXF1aXBvLS0+PGcgaWQ9ImVsZW1fRXF1aXBvIj48cmVjdCBjb2RlTGluZT0iMTE1IiBmaWxsPSIjRjFGMUYxIiBoZWlnaHQ9IjE2Ny44NzUiIGlkPSJFcXVpcG8iIHJ4PSIyLjUiIHJ5PSIyLjUiIHN0eWxlPSJzdHJva2U6IzE4MTgxODtzdHJva2Utd2lkdGg6MC41OyIgd2lkdGg9IjI4MCIgeD0iMjAwIiB5PSI4MjMiLz48ZWxsaXBzZSBjeD0iMzE0Ljc1IiBjeT0iODM5IiBmaWxsPSIjQUREMUIyIiByeD0iMTEiIHJ5PSIxMSIgc3R5bGU9InN0cm9rZTojMTgxODE4O3N0cm9rZS13aWR0aDoxLjA7Ii8+PHBhdGggZD0iTTMxMi4zNzUsODQzLjI1IEwzMTIuMzc1LDg0NSBMMzE3LjMxMjUsODQ1IEwzMTcuMzEyNSw4NDMuMjUgTDMxMi4zNzUsODQzLjI1IFogTTMxMy4wNjI1LDg0My45Mzc1IFEzMTMuMDYyNSw4NDMuOTM3NSAzMTMuMDYyNSw4MzQuNzUgTDMxMS4zMTI1LDgzNC43NSBRMzExLjMxMjUsODM0Ljc1IDMxMS4zMTI1LDg0My45Mzc1IEwzMTMuMDYyNSw4NDMuOTM3NSBaIE0zMTYuNjI1LDg0My45Mzc1IEwzMTguMzc1LDg0My45Mzc1IFEzMTguMzc1LDg0My45Mzc1IDMxOC4zNzUsODQxLjEyNSBMMzE2LjYyNSw4NDEuMTI1IFEzMTYuNjI1LDg0MS4xMjUgMzE2LjYyNSw4NDMuOTM3NSBaIE0zMTYuNjI1LDgzNC43NSBRMzE2LjYyNSw4MzQuNzUgMzE2LjYyNSw4MzcuNTYyNSBMMzE4LjM3NSw4MzcuNTYyNSBRMzE4LjM3NSw4MzcuNTYyNSAzMTguMzc1LDgzNC43NSBMMzE2LjYyNSw4MzQuNzUgWiBNMzEyLjM3NSw4MzUuNDM3NSBMMzE3LjMxMjUsODM1LjQzNzUgTDMxNy4zMTI1LDgzMy42ODc1IEwzMTIuMzc1LDgzMy42ODc1IEwzMTIuMzc1LDgzNS40Mzc1IFogIiBmaWxsPSIjMDAwMDAwIi8+PHRleHQgZmlsbD0iIzAwMDAwMCIgZm9udC1mYW1pbHk9InNhbnMtc2VyaWYiIGZvbnQtc2l6ZT0iMTQiIGxlbmd0aEFkanVzdD0ic3BhY2luZyIgdGV4dExlbmd0aD0iNDIiIHg9IjMzNS4yNSIgeT0iODQ0Ljc0MjIiPkVxdWlwbzwvdGV4dD48bGluZSBzdHlsZT0ic3Ryb2tlOiMxODE4MTg7c3Ryb2tlLXdpZHRoOjAuNTsiIHgxPSIyMDEiIHgyPSI0NzkiIHkxPSI4NTUiIHkyPSI4NTUiLz48ZWxsaXBzZSBjeD0iMjExIiBjeT0iODY3Ljk5MjIiIGZpbGw9Im5vbmUiIHJ4PSIzIiByeT0iMyIgc3R5bGU9InN0cm9rZTojMDM4MDQ4O3N0cm9rZS13aWR0aDoxLjA7Ii8+PHRleHQgZmlsbD0iIzAwMDAwMCIgZm9udC1mYW1pbHk9InNhbnMtc2VyaWYiIGZvbnQtc2l6ZT0iMTQiIGxlbmd0aEFkanVzdD0ic3BhY2luZyIgdGV4dExlbmd0aD0iOTgiIHg9IjIyMCIgeT0iODcyLjIzNDQiPnBvc2ljaW9uIDogaW50PC90ZXh0PjxlbGxpcHNlIGN4PSIyMTEiIGN5PSI4ODIuOTc2NiIgZmlsbD0ibm9uZSIgcng9IjMiIHJ5PSIzIiBzdHlsZT0ic3Ryb2tlOiMwMzgwNDg7c3Ryb2tlLXdpZHRoOjEuMDsiLz48dGV4dCBmaWxsPSIjMDAwMDAwIiBmb250LWZhbWlseT0ic2Fucy1zZXJpZiIgZm9udC1zaXplPSIxNCIgbGVuZ3RoQWRqdXN0PSJzcGFjaW5nIiB0ZXh0TGVuZ3RoPSIyNDUiIHg9IjIyMCIgeT0iODg3LjIxODgiPmxpc3RhRGF0b3MgOiBWZWN0b3ImbHQ7UGVyc29uYWplRmljaGEmZ3Q7PC90ZXh0PjxsaW5lIHN0eWxlPSJzdHJva2U6IzE4MTgxODtzdHJva2Utd2lkdGg6MC41OyIgeDE9IjIwMSIgeDI9IjQ3OSIgeTE9Ijg5Mi45Njg4IiB5Mj0iODkyLjk2ODgiLz48ZWxsaXBzZSBjeD0iMjExIiBjeT0iOTA1Ljk2MDkiIGZpbGw9IiM4NEJFODQiIHJ4PSIzIiByeT0iMyIgc3R5bGU9InN0cm9rZTojMDM4MDQ4O3N0cm9rZS13aWR0aDoxLjA7Ii8+PHRleHQgZmlsbD0iIzAwMDAwMCIgZm9udC1mYW1pbHk9InNhbnMtc2VyaWYiIGZvbnQtc2l6ZT0iMTQiIGxlbmd0aEFkanVzdD0ic3BhY2luZyIgdGV4dExlbmd0aD0iNTgiIHg9IjIyMCIgeT0iOTEwLjIwMzEiPkVxdWlwbygpPC90ZXh0PjxlbGxpcHNlIGN4PSIyMTEiIGN5PSI5MjAuOTQ1MyIgZmlsbD0iIzg0QkU4NCIgcng9IjMiIHJ5PSIzIiBzdHlsZT0ic3Ryb2tlOiMwMzgwNDg7c3Ryb2tlLXdpZHRoOjEuMDsiLz48dGV4dCBmaWxsPSIjMDAwMDAwIiBmb250LWZhbWlseT0ic2Fucy1zZXJpZiIgZm9udC1zaXplPSIxNCIgbGVuZ3RoQWRqdXN0PSJzcGFjaW5nIiB0ZXh0TGVuZ3RoPSIyNTQiIHg9IjIyMCIgeT0iOTI1LjE4NzUiPmEmIzI0MTthZGlyTnVldm9QZXJzb25hamUoUGVyc29uYWplRmljaGEpPC90ZXh0PjxlbGxpcHNlIGN4PSIyMTEiIGN5PSI5MzUuOTI5NyIgZmlsbD0iIzg0QkU4NCIgcng9IjMiIHJ5PSIzIiBzdHlsZT0ic3Ryb2tlOiMwMzgwNDg7c3Ryb2tlLXdpZHRoOjEuMDsiLz48dGV4dCBmaWxsPSIjMDAwMDAwIiBmb250LWZhbWlseT0ic2Fucy1zZXJpZiIgZm9udC1zaXplPSIxNCIgbGVuZ3RoQWRqdXN0PSJzcGFjaW5nIiB0ZXh0TGVuZ3RoPSIyMjciIHg9IjIyMCIgeT0iOTQwLjE3MTkiPmNvbnN1bHRhclBlcnNvbmFqZVBvck51bWVybyhpbnQpPC90ZXh0PjxlbGxpcHNlIGN4PSIyMTEiIGN5PSI5NTAuOTE0MSIgZmlsbD0iIzg0QkU4NCIgcng9IjMiIHJ5PSIzIiBzdHlsZT0ic3Ryb2tlOiMwMzgwNDg7c3Ryb2tlLXdpZHRoOjEuMDsiLz48dGV4dCBmaWxsPSIjMDAwMDAwIiBmb250LWZhbWlseT0ic2Fucy1zZXJpZiIgZm9udC1zaXplPSIxNCIgbGVuZ3RoQWRqdXN0PSJzcGFjaW5nIiB0ZXh0TGVuZ3RoPSIyMDYiIHg9IjIyMCIgeT0iOTU1LjE1NjMiPmNvbnN1bHRhck51bWVyb0RlUGVyc29uYWplcygpPC90ZXh0PjxlbGxpcHNlIGN4PSIyMTEiIGN5PSI5NjUuODk4NCIgZmlsbD0iIzg0QkU4NCIgcng9IjMiIHJ5PSIzIiBzdHlsZT0ic3Ryb2tlOiMwMzgwNDg7c3Ryb2tlLXdpZHRoOjEuMDsiLz48dGV4dCBmaWxsPSIjMDAwMDAwIiBmb250LWZhbWlseT0ic2Fucy1zZXJpZiIgZm9udC1zaXplPSIxNCIgbGVuZ3RoQWRqdXN0PSJzcGFjaW5nIiB0ZXh0TGVuZ3RoPSI5MyIgeD0iMjIwIiB5PSI5NzAuMTQwNiI+dGlwb1hUb1RleHQoKTwvdGV4dD48ZWxsaXBzZSBjeD0iMjExIiBjeT0iOTgwLjg4MjgiIGZpbGw9IiM4NEJFODQiIHJ4PSIzIiByeT0iMyIgc3R5bGU9InN0cm9rZTojMDM4MDQ4O3N0cm9rZS13aWR0aDoxLjA7Ii8+PHRleHQgZmlsbD0iIzAwMDAwMCIgZm9udC1mYW1pbHk9InNhbnMtc2VyaWYiIGZvbnQtc2l6ZT0iMTQiIGxlbmd0aEFkanVzdD0ic3BhY2luZyIgdGV4dExlbmd0aD0iMTU3IiB4PSIyMjAiIHk9Ijk4NS4xMjUiPmZvcm1hdGVhckVxdWlwb1RvQ3N2KCk8L3RleHQ+PC9nPjwhLS1jbGFzcyBFcXVpcG9UZXN0LS0+PGcgaWQ9ImVsZW1fRXF1aXBvVGVzdCI+PHJlY3QgZmlsbD0iI0YxRjFGMSIgaGVpZ2h0PSI0OCIgaWQ9IkVxdWlwb1Rlc3QiIHJ4PSIyLjUiIHJ5PSIyLjUiIHN0eWxlPSJzdHJva2U6IzE4MTgxODtzdHJva2Utd2lkdGg6MC41OyIgd2lkdGg9IjEwMiIgeD0iMjg5IiB5PSIxMDY2Ii8+PGVsbGlwc2UgY3g9IjMwNCIgY3k9IjEwODIiIGZpbGw9IiNBREQxQjIiIHJ4PSIxMSIgcnk9IjExIiBzdHlsZT0ic3Ryb2tlOiMxODE4MTg7c3Ryb2tlLXdpZHRoOjEuMDsiLz48cGF0aCBkPSJNMzAxLjYyNSwxMDg2LjI1IEwzMDEuNjI1LDEwODggTDMwNi41NjI1LDEwODggTDMwNi41NjI1LDEwODYuMjUgTDMwMS42MjUsMTA4Ni4yNSBaIE0zMDIuMzEyNSwxMDg2LjkzNzUgUTMwMi4zMTI1LDEwODYuOTM3NSAzMDIuMzEyNSwxMDc3Ljc1IEwzMDAuNTYyNSwxMDc3Ljc1IFEzMDAuNTYyNSwxMDc3Ljc1IDMwMC41NjI1LDEwODYuOTM3NSBMMzAyLjMxMjUsMTA4Ni45Mzc1IFogTTMwNS44NzUsMTA4Ni45Mzc1IEwzMDcuNjI1LDEwODYuOTM3NSBRMzA3LjYyNSwxMDg2LjkzNzUgMzA3LjYyNSwxMDg0LjEyNSBMMzA1Ljg3NSwxMDg0LjEyNSBRMzA1Ljg3NSwxMDg0LjEyNSAzMDUuODc1LDEwODYuOTM3NSBaIE0zMDUuODc1LDEwNzcuNzUgUTMwNS44NzUsMTA3Ny43NSAzMDUuODc1LDEwODAuNTYyNSBMMzA3LjYyNSwxMDgwLjU2MjUgUTMwNy42MjUsMTA4MC41NjI1IDMwNy42MjUsMTA3Ny43NSBMMzA1Ljg3NSwxMDc3Ljc1IFogTTMwMS42MjUsMTA3OC40Mzc1IEwzMDYuNTYyNSwxMDc4LjQzNzUgTDMwNi41NjI1LDEwNzYuNjg3NSBMMzAxLjYyNSwxMDc2LjY4NzUgTDMwMS42MjUsMTA3OC40Mzc1IFogIiBmaWxsPSIjMDAwMDAwIi8+PHRleHQgZmlsbD0iIzAwMDAwMCIgZm9udC1mYW1pbHk9InNhbnMtc2VyaWYiIGZvbnQtc2l6ZT0iMTQiIGxlbmd0aEFkanVzdD0ic3BhY2luZyIgdGV4dExlbmd0aD0iNzAiIHg9IjMxOCIgeT0iMTA4Ny43NDIyIj5FcXVpcG9UZXN0PC90ZXh0PjxsaW5lIHN0eWxlPSJzdHJva2U6IzE4MTgxODtzdHJva2Utd2lkdGg6MC41OyIgeDE9IjI5MCIgeDI9IjM5MCIgeTE9IjEwOTgiIHkyPSIxMDk4Ii8+PGxpbmUgc3R5bGU9InN0cm9rZTojMTgxODE4O3N0cm9rZS13aWR0aDowLjU7IiB4MT0iMjkwIiB4Mj0iMzkwIiB5MT0iMTEwNiIgeTI9IjExMDYiLz48L2c+PCEtLWNsYXNzIENvbnRyb2xCdWNsZVByaW5jaXBhbC0tPjxnIGlkPSJlbGVtX0NvbnRyb2xCdWNsZVByaW5jaXBhbCI+PHJlY3QgY29kZUxpbmU9IjcwIiBmaWxsPSIjRjFGMUYxIiBoZWlnaHQ9IjIxMi44MjgxIiBpZD0iQ29udHJvbEJ1Y2xlUHJpbmNpcGFsIiByeD0iMi41IiByeT0iMi41IiBzdHlsZT0ic3Ryb2tlOiMxODE4MTg7c3Ryb2tlLXdpZHRoOjAuNTsiIHdpZHRoPSIyOTIiIHg9IjEzNTQiIHk9IjciLz48ZWxsaXBzZSBjeD0iMTQyMi4yNSIgY3k9IjIzIiBmaWxsPSIjQUREMUIyIiByeD0iMTEiIHJ5PSIxMSIgc3R5bGU9InN0cm9rZTojMTgxODE4O3N0cm9rZS13aWR0aDoxLjA7Ii8+PHBhdGggZD0iTTE0MTkuODc1LDI3LjI1IEwxNDE5Ljg3NSwyOSBMMTQyNC44MTI1LDI5IEwxNDI0LjgxMjUsMjcuMjUgTDE0MTkuODc1LDI3LjI1IFogTTE0MjAuNTYyNSwyNy45Mzc1IFExNDIwLjU2MjUsMjcuOTM3NSAxNDIwLjU2MjUsMTguNzUgTDE0MTguODEyNSwxOC43NSBRMTQxOC44MTI1LDE4Ljc1IDE0MTguODEyNSwyNy45Mzc1IEwxNDIwLjU2MjUsMjcuOTM3NSBaIE0xNDI0LjEyNSwyNy45Mzc1IEwxNDI1Ljg3NSwyNy45Mzc1IFExNDI1Ljg3NSwyNy45Mzc1IDE0MjUuODc1LDI1LjEyNSBMMTQyNC4xMjUsMjUuMTI1IFExNDI0LjEyNSwyNS4xMjUgMTQyNC4xMjUsMjcuOTM3NSBaIE0xNDI0LjEyNSwxOC43NSBRMTQyNC4xMjUsMTguNzUgMTQyNC4xMjUsMjEuNTYyNSBMMTQyNS44NzUsMjEuNTYyNSBRMTQyNS44NzUsMjEuNTYyNSAxNDI1Ljg3NSwxOC43NSBMMTQyNC4xMjUsMTguNzUgWiBNMTQxOS44NzUsMTkuNDM3NSBMMTQyNC44MTI1LDE5LjQzNzUgTDE0MjQuODEyNSwxNy42ODc1IEwxNDE5Ljg3NSwxNy42ODc1IEwxNDE5Ljg3NSwxOS40Mzc1IFogIiBmaWxsPSIjMDAwMDAwIi8+PHRleHQgZmlsbD0iIzAwMDAwMCIgZm9udC1mYW1pbHk9InNhbnMtc2VyaWYiIGZvbnQtc2l6ZT0iMTQiIGxlbmd0aEFkanVzdD0ic3BhY2luZyIgdGV4dExlbmd0aD0iMTQ3IiB4PSIxNDQyLjc1IiB5PSIyOC43NDIyIj5Db250cm9sQnVjbGVQcmluY2lwYWw8L3RleHQ+PGxpbmUgc3R5bGU9InN0cm9rZTojMTgxODE4O3N0cm9rZS13aWR0aDowLjU7IiB4MT0iMTM1NSIgeDI9IjE2NDUiIHkxPSIzOSIgeTI9IjM5Ii8+PHJlY3QgZmlsbD0ibm9uZSIgaGVpZ2h0PSI2IiBzdHlsZT0ic3Ryb2tlOiNDODI5MzA7c3Ryb2tlLXdpZHRoOjEuMDsiIHdpZHRoPSI2IiB4PSIxMzYyIiB5PSI0OC45OTIyIi8+PHRleHQgZmlsbD0iIzAwMDAwMCIgZm9udC1mYW1pbHk9InNhbnMtc2VyaWYiIGZvbnQtc2l6ZT0iMTQiIGxlbmd0aEFkanVzdD0ic3BhY2luZyIgdGV4dC1kZWNvcmF0aW9uPSJ1bmRlcmxpbmUiIHRleHRMZW5ndGg9IjE2OCIgeD0iMTM3NCIgeT0iNTYuMjM0NCI+T1BDSU9ORVNfTUVOVSA6IFN0cmluZ1tdPC90ZXh0PjxyZWN0IGZpbGw9Im5vbmUiIGhlaWdodD0iNiIgc3R5bGU9InN0cm9rZTojQzgyOTMwO3N0cm9rZS13aWR0aDoxLjA7IiB3aWR0aD0iNiIgeD0iMTM2MiIgeT0iNjMuOTc2NiIvPjx0ZXh0IGZpbGw9IiMwMDAwMDAiIGZvbnQtZmFtaWx5PSJzYW5zLXNlcmlmIiBmb250LXNpemU9IjE0IiBsZW5ndGhBZGp1c3Q9InNwYWNpbmciIHRleHQtZGVjb3JhdGlvbj0idW5kZXJsaW5lIiB0ZXh0TGVuZ3RoPSIyMTciIHg9IjEzNzQiIHk9IjcxLjIxODgiPlJFU1BVRVNUQVNfU1VCVElUVUxPIDogU3RyaW5nW108L3RleHQ+PGVsbGlwc2UgY3g9IjEzNjUiIGN5PSI4MS45NjA5IiBmaWxsPSJub25lIiByeD0iMyIgcnk9IjMiIHN0eWxlPSJzdHJva2U6IzAzODA0ODtzdHJva2Utd2lkdGg6MS4wOyIvPjx0ZXh0IGZpbGw9IiMwMDAwMDAiIGZvbnQtZmFtaWx5PSJzYW5zLXNlcmlmIiBmb250LXNpemU9IjE0IiBsZW5ndGhBZGp1c3Q9InNwYWNpbmciIHRleHRMZW5ndGg9IjE2OCIgeD0iMTM3NCIgeT0iODYuMjAzMSI+ZXF1aXBvUHJpbmNpcGFsIDogRXF1aXBvPC90ZXh0PjxlbGxpcHNlIGN4PSIxMzY1IiBjeT0iOTYuOTQ1MyIgZmlsbD0ibm9uZSIgcng9IjMiIHJ5PSIzIiBzdHlsZT0ic3Ryb2tlOiMwMzgwNDg7c3Ryb2tlLXdpZHRoOjEuMDsiLz48dGV4dCBmaWxsPSIjMDAwMDAwIiBmb250LWZhbWlseT0ic2Fucy1zZXJpZiIgZm9udC1zaXplPSIxNCIgbGVuZ3RoQWRqdXN0PSJzcGFjaW5nIiB0ZXh0TGVuZ3RoPSIyNjYiIHg9IjEzNzQiIHk9IjEwMS4xODc1Ij5saXN0YU51ZXZvc1BlcnNvbmFqZXMgOiBWZWN0b3ImbHQ7U3RyaW5nJmd0OzwvdGV4dD48bGluZSBzdHlsZT0ic3Ryb2tlOiMxODE4MTg7c3Ryb2tlLXdpZHRoOjAuNTsiIHgxPSIxMzU1IiB4Mj0iMTY0NSIgeTE9IjEwNi45Mzc1IiB5Mj0iMTA2LjkzNzUiLz48ZWxsaXBzZSBjeD0iMTM2NSIgY3k9IjExOS45Mjk3IiBmaWxsPSIjODRCRTg0IiByeD0iMyIgcnk9IjMiIHN0eWxlPSJzdHJva2U6IzAzODA0ODtzdHJva2Utd2lkdGg6MS4wOyIvPjx0ZXh0IGZpbGw9IiMwMDAwMDAiIGZvbnQtZmFtaWx5PSJzYW5zLXNlcmlmIiBmb250LXNpemU9IjE0IiBsZW5ndGhBZGp1c3Q9InNwYWNpbmciIHRleHRMZW5ndGg9IjE2MyIgeD0iMTM3NCIgeT0iMTI0LjE3MTkiPkNvbnRyb2xCdWNsZVByaW5jaXBhbCgpPC90ZXh0PjxyZWN0IGZpbGw9IiNGMjRENUMiIGhlaWdodD0iNiIgc3R5bGU9InN0cm9rZTojQzgyOTMwO3N0cm9rZS13aWR0aDoxLjA7IiB3aWR0aD0iNiIgeD0iMTM2MiIgeT0iMTMxLjkxNDEiLz48dGV4dCBmaWxsPSIjMDAwMDAwIiBmb250LWZhbWlseT0ic2Fucy1zZXJpZiIgZm9udC1zaXplPSIxNCIgbGVuZ3RoQWRqdXN0PSJzcGFjaW5nIiB0ZXh0TGVuZ3RoPSIxMTQiIHg9IjEzNzQiIHk9IjEzOS4xNTYzIj5idWNsZVByaW5jaXBhbCgpPC90ZXh0PjxyZWN0IGZpbGw9IiNGMjRENUMiIGhlaWdodD0iNiIgc3R5bGU9InN0cm9rZTojQzgyOTMwO3N0cm9rZS13aWR0aDoxLjA7IiB3aWR0aD0iNiIgeD0iMTM2MiIgeT0iMTQ2Ljg5ODQiLz48dGV4dCBmaWxsPSIjMDAwMDAwIiBmb250LWZhbWlseT0ic2Fucy1zZXJpZiIgZm9udC1zaXplPSIxNCIgbGVuZ3RoQWRqdXN0PSJzcGFjaW5nIiB0ZXh0TGVuZ3RoPSIxOTEiIHg9IjEzNzQiIHk9IjE1NC4xNDA2Ij5vcGNpb25DcmVhclBlcnNvbmFqZSgpOnZvaWQ8L3RleHQ+PHJlY3QgZmlsbD0iI0YyNEQ1QyIgaGVpZ2h0PSI2IiBzdHlsZT0ic3Ryb2tlOiNDODI5MzA7c3Ryb2tlLXdpZHRoOjEuMDsiIHdpZHRoPSI2IiB4PSIxMzYyIiB5PSIxNjEuODgyOCIvPjx0ZXh0IGZpbGw9IiMwMDAwMDAiIGZvbnQtZmFtaWx5PSJzYW5zLXNlcmlmIiBmb250LXNpemU9IjE0IiBsZW5ndGhBZGp1c3Q9InNwYWNpbmciIHRleHRMZW5ndGg9IjE4NCIgeD0iMTM3NCIgeT0iMTY5LjEyNSI+b3BjaSYjMjQzO25MaXN0YWRvVGV4dG9zKCk6dm9pZDwvdGV4dD48cmVjdCBmaWxsPSIjRjI0RDVDIiBoZWlnaHQ9IjYiIHN0eWxlPSJzdHJva2U6I0M4MjkzMDtzdHJva2Utd2lkdGg6MS4wOyIgd2lkdGg9IjYiIHg9IjEzNjIiIHk9IjE3Ni44NjcyIi8+PHRleHQgZmlsbD0iIzAwMDAwMCIgZm9udC1mYW1pbHk9InNhbnMtc2VyaWYiIGZvbnQtc2l6ZT0iMTQiIGxlbmd0aEFkanVzdD0ic3BhY2luZyIgdGV4dExlbmd0aD0iMTkyIiB4PSIxMzc0IiB5PSIxODQuMTA5NCI+b3BjaW9uSW1wb3J0YXJUZXh0b3MoKTp2b2lkPC90ZXh0PjxyZWN0IGZpbGw9IiNGMjRENUMiIGhlaWdodD0iNiIgc3R5bGU9InN0cm9rZTojQzgyOTMwO3N0cm9rZS13aWR0aDoxLjA7IiB3aWR0aD0iNiIgeD0iMTM2MiIgeT0iMTkxLjg1MTYiLz48dGV4dCBmaWxsPSIjMDAwMDAwIiBmb250LWZhbWlseT0ic2Fucy1zZXJpZiIgZm9udC1zaXplPSIxNCIgbGVuZ3RoQWRqdXN0PSJzcGFjaW5nIiB0ZXh0TGVuZ3RoPSIxOTEiIHg9IjEzNzQiIHk9IjE5OS4wOTM4Ij5vcGNpJiMyNDM7bkV4cG9ydGFyVGV4dG9zKCk6dm9pZDwvdGV4dD48ZWxsaXBzZSBjeD0iMTM2NSIgY3k9IjIwOS44MzU5IiBmaWxsPSIjODRCRTg0IiByeD0iMyIgcnk9IjMiIHN0eWxlPSJzdHJva2U6IzAzODA0ODtzdHJva2Utd2lkdGg6MS4wOyIvPjx0ZXh0IGZpbGw9IiMwMDAwMDAiIGZvbnQtZmFtaWx5PSJzYW5zLXNlcmlmIiBmb250LXNpemU9IjE0IiBsZW5ndGhBZGp1c3Q9InNwYWNpbmciIHRleHQtZGVjb3JhdGlvbj0idW5kZXJsaW5lIiB0ZXh0TGVuZ3RoPSIxMzYiIHg9IjEzNzQiIHk9IjIxNC4wNzgxIj5tYWluKFN0cmluZ1tdKTp2b2lkPC90ZXh0PjwvZz48IS0tY2xhc3MgVmlzdGFNZW51LS0+PGcgaWQ9ImVsZW1fVmlzdGFNZW51Ij48cmVjdCBjb2RlTGluZT0iMjQiIGZpbGw9IiNGMUYxRjEiIGhlaWdodD0iMTM3LjkwNjMiIGlkPSJWaXN0YU1lbnUiIHJ4PSIyLjUiIHJ5PSIyLjUiIHN0eWxlPSJzdHJva2U6IzE4MTgxODtzdHJva2Utd2lkdGg6MC41OyIgd2lkdGg9IjI1NyIgeD0iOTI3LjUiIHk9IjQ1Mi41Ii8+PGVsbGlwc2UgY3g9IjEwMjAuMjUiIGN5PSI0NjguNSIgZmlsbD0iI0FERDFCMiIgcng9IjExIiByeT0iMTEiIHN0eWxlPSJzdHJva2U6IzE4MTgxODtzdHJva2Utd2lkdGg6MS4wOyIvPjxwYXRoIGQ9Ik0xMDE3Ljg3NSw0NzIuNzUgTDEwMTcuODc1LDQ3NC41IEwxMDIyLjgxMjUsNDc0LjUgTDEwMjIuODEyNSw0NzIuNzUgTDEwMTcuODc1LDQ3Mi43NSBaIE0xMDE4LjU2MjUsNDczLjQzNzUgUTEwMTguNTYyNSw0NzMuNDM3NSAxMDE4LjU2MjUsNDY0LjI1IEwxMDE2LjgxMjUsNDY0LjI1IFExMDE2LjgxMjUsNDY0LjI1IDEwMTYuODEyNSw0NzMuNDM3NSBMMTAxOC41NjI1LDQ3My40Mzc1IFogTTEwMjIuMTI1LDQ3My40Mzc1IEwxMDIzLjg3NSw0NzMuNDM3NSBRMTAyMy44NzUsNDczLjQzNzUgMTAyMy44NzUsNDcwLjYyNSBMMTAyMi4xMjUsNDcwLjYyNSBRMTAyMi4xMjUsNDcwLjYyNSAxMDIyLjEyNSw0NzMuNDM3NSBaIE0xMDIyLjEyNSw0NjQuMjUgUTEwMjIuMTI1LDQ2NC4yNSAxMDIyLjEyNSw0NjcuMDYyNSBMMTAyMy44NzUsNDY3LjA2MjUgUTEwMjMuODc1LDQ2Ny4wNjI1IDEwMjMuODc1LDQ2NC4yNSBMMTAyMi4xMjUsNDY0LjI1IFogTTEwMTcuODc1LDQ2NC45Mzc1IEwxMDIyLjgxMjUsNDY0LjkzNzUgTDEwMjIuODEyNSw0NjMuMTg3NSBMMTAxNy44NzUsNDYzLjE4NzUgTDEwMTcuODc1LDQ2NC45Mzc1IFogIiBmaWxsPSIjMDAwMDAwIi8+PHRleHQgZmlsbD0iIzAwMDAwMCIgZm9udC1mYW1pbHk9InNhbnMtc2VyaWYiIGZvbnQtc2l6ZT0iMTQiIGxlbmd0aEFkanVzdD0ic3BhY2luZyIgdGV4dExlbmd0aD0iNjMiIHg9IjEwNDAuNzUiIHk9IjQ3NC4yNDIyIj5WaXN0YU1lbnU8L3RleHQ+PGxpbmUgc3R5bGU9InN0cm9rZTojMTgxODE4O3N0cm9rZS13aWR0aDowLjU7IiB4MT0iOTI4LjUiIHgyPSIxMTgzLjUiIHkxPSI0ODQuNSIgeTI9IjQ4NC41Ii8+PHRleHQgZmlsbD0iIzAwMDAwMCIgZm9udC1mYW1pbHk9InNhbnMtc2VyaWYiIGZvbnQtc2l6ZT0iMTQiIGxlbmd0aEFkanVzdD0ic3BhY2luZyIgdGV4dC1kZWNvcmF0aW9uPSJ1bmRlcmxpbmUiIHRleHRMZW5ndGg9IjIyNiIgeD0iOTQ3LjUiIHk9IjUwMS43MzQ0Ij57ZmluYWx9LVRFWFRPX09QVElPTlMgOiBTdHJpbmdbXTwvdGV4dD48cmVjdCBmaWxsPSJub25lIiBoZWlnaHQ9IjYiIHN0eWxlPSJzdHJva2U6I0M4MjkzMDtzdHJva2Utd2lkdGg6MS4wOyIgd2lkdGg9IjYiIHg9IjkzNS41IiB5PSI1MDkuNDc2NiIvPjx0ZXh0IGZpbGw9IiMwMDAwMDAiIGZvbnQtZmFtaWx5PSJzYW5zLXNlcmlmIiBmb250LXNpemU9IjE0IiBsZW5ndGhBZGp1c3Q9InNwYWNpbmciIHRleHRMZW5ndGg9Ijg0IiB4PSI5NDcuNSIgeT0iNTE2LjcxODgiPmluIDogU2Nhbm5lcjwvdGV4dD48cmVjdCBmaWxsPSJub25lIiBoZWlnaHQ9IjYiIHN0eWxlPSJzdHJva2U6I0M4MjkzMDtzdHJva2Utd2lkdGg6MS4wOyIgd2lkdGg9IjYiIHg9IjkzNS41IiB5PSI1MjQuNDYwOSIvPjx0ZXh0IGZpbGw9IiMwMDAwMDAiIGZvbnQtZmFtaWx5PSJzYW5zLXNlcmlmIiBmb250LXNpemU9IjE0IiBsZW5ndGhBZGp1c3Q9InNwYWNpbmciIHRleHRMZW5ndGg9IjIzMSIgeD0iOTQ3LjUiIHk9IjUzMS43MDMxIj5saXN0YU9wY2lvbmVzIDogQXJyYXlMaXN0Jmx0O1N0cmluZyZndDs8L3RleHQ+PGxpbmUgc3R5bGU9InN0cm9rZTojMTgxODE4O3N0cm9rZS13aWR0aDowLjU7IiB4MT0iOTI4LjUiIHgyPSIxMTgzLjUiIHkxPSI1MzcuNDUzMSIgeTI9IjUzNy40NTMxIi8+PGVsbGlwc2UgY3g9IjkzOC41IiBjeT0iNTUwLjQ0NTMiIGZpbGw9IiM4NEJFODQiIHJ4PSIzIiByeT0iMyIgc3R5bGU9InN0cm9rZTojMDM4MDQ4O3N0cm9rZS13aWR0aDoxLjA7Ii8+PHRleHQgZmlsbD0iIzAwMDAwMCIgZm9udC1mYW1pbHk9InNhbnMtc2VyaWYiIGZvbnQtc2l6ZT0iMTQiIGxlbmd0aEFkanVzdD0ic3BhY2luZyIgdGV4dExlbmd0aD0iMTAwIiB4PSI5NDcuNSIgeT0iNTU0LjY4NzUiPlZpc3RhTWVudShUW10pPC90ZXh0PjxlbGxpcHNlIGN4PSI5MzguNSIgY3k9IjU2NS40Mjk3IiBmaWxsPSIjODRCRTg0IiByeD0iMyIgcnk9IjMiIHN0eWxlPSJzdHJva2U6IzAzODA0ODtzdHJva2Utd2lkdGg6MS4wOyIvPjx0ZXh0IGZpbGw9IiMwMDAwMDAiIGZvbnQtZmFtaWx5PSJzYW5zLXNlcmlmIiBmb250LXNpemU9IjE0IiBsZW5ndGhBZGp1c3Q9InNwYWNpbmciIHRleHRMZW5ndGg9IjEyMiIgeD0iOTQ3LjUiIHk9IjU2OS42NzE5Ij5tb3N0cmFyT3BjaW9uZXMoKTwvdGV4dD48ZWxsaXBzZSBjeD0iOTM4LjUiIGN5PSI1ODAuNDE0MSIgZmlsbD0iIzg0QkU4NCIgcng9IjMiIHJ5PSIzIiBzdHlsZT0ic3Ryb2tlOiMwMzgwNDg7c3Ryb2tlLXdpZHRoOjEuMDsiLz48dGV4dCBmaWxsPSIjMDAwMDAwIiBmb250LWZhbWlseT0ic2Fucy1zZXJpZiIgZm9udC1zaXplPSIxNCIgbGVuZ3RoQWRqdXN0PSJzcGFjaW5nIiB0ZXh0TGVuZ3RoPSI5MyIgeD0iOTQ3LjUiIHk9IjU4NC42NTYzIj5wZWRpck9wY2lvbigpPC90ZXh0PjwvZz48IS0tY2xhc3MgQWNjZXNvRGF0b3MtLT48ZyBpZD0iZWxlbV9BY2Nlc29EYXRvcyI+PHJlY3QgY29kZUxpbmU9IjY1IiBmaWxsPSIjRjFGMUYxIiBoZWlnaHQ9Ijc3Ljk2ODgiIGlkPSJBY2Nlc29EYXRvcyIgcng9IjIuNSIgcnk9IjIuNSIgc3R5bGU9InN0cm9rZTojMTgxODE4O3N0cm9rZS13aWR0aDowLjU7IiB3aWR0aD0iNTYwIiB4PSIxMjIwIiB5PSI0ODIuNSIvPjxlbGxpcHNlIGN4PSIxNDU3LjI1IiBjeT0iNDk4LjUiIGZpbGw9IiNBREQxQjIiIHJ4PSIxMSIgcnk9IjExIiBzdHlsZT0ic3Ryb2tlOiMxODE4MTg7c3Ryb2tlLXdpZHRoOjEuMDsiLz48cGF0aCBkPSJNMTQ1NC44NzUsNTAyLjc1IEwxNDU0Ljg3NSw1MDQuNSBMMTQ1OS44MTI1LDUwNC41IEwxNDU5LjgxMjUsNTAyLjc1IEwxNDU0Ljg3NSw1MDIuNzUgWiBNMTQ1NS41NjI1LDUwMy40Mzc1IFExNDU1LjU2MjUsNTAzLjQzNzUgMTQ1NS41NjI1LDQ5NC4yNSBMMTQ1My44MTI1LDQ5NC4yNSBRMTQ1My44MTI1LDQ5NC4yNSAxNDUzLjgxMjUsNTAzLjQzNzUgTDE0NTUuNTYyNSw1MDMuNDM3NSBaIE0xNDU5LjEyNSw1MDMuNDM3NSBMMTQ2MC44NzUsNTAzLjQzNzUgUTE0NjAuODc1LDUwMy40Mzc1IDE0NjAuODc1LDUwMC42MjUgTDE0NTkuMTI1LDUwMC42MjUgUTE0NTkuMTI1LDUwMC42MjUgMTQ1OS4xMjUsNTAzLjQzNzUgWiBNMTQ1OS4xMjUsNDk0LjI1IFExNDU5LjEyNSw0OTQuMjUgMTQ1OS4xMjUsNDk3LjA2MjUgTDE0NjAuODc1LDQ5Ny4wNjI1IFExNDYwLjg3NSw0OTcuMDYyNSAxNDYwLjg3NSw0OTQuMjUgTDE0NTkuMTI1LDQ5NC4yNSBaIE0xNDU0Ljg3NSw0OTQuOTM3NSBMMTQ1OS44MTI1LDQ5NC45Mzc1IEwxNDU5LjgxMjUsNDkzLjE4NzUgTDE0NTQuODc1LDQ5My4xODc1IEwxNDU0Ljg3NSw0OTQuOTM3NSBaICIgZmlsbD0iIzAwMDAwMCIvPjx0ZXh0IGZpbGw9IiMwMDAwMDAiIGZvbnQtZmFtaWx5PSJzYW5zLXNlcmlmIiBmb250LXNpemU9IjE0IiBsZW5ndGhBZGp1c3Q9InNwYWNpbmciIHRleHRMZW5ndGg9Ijc3IiB4PSIxNDc3Ljc1IiB5PSI1MDQuMjQyMiI+QWNjZXNvRGF0b3M8L3RleHQ+PGxpbmUgc3R5bGU9InN0cm9rZTojMTgxODE4O3N0cm9rZS13aWR0aDowLjU7IiB4MT0iMTIyMSIgeDI9IjE3NzkiIHkxPSI1MTQuNSIgeTI9IjUxNC41Ii8+PGxpbmUgc3R5bGU9InN0cm9rZTojMTgxODE4O3N0cm9rZS13aWR0aDowLjU7IiB4MT0iMTIyMSIgeDI9IjE3NzkiIHkxPSI1MjIuNSIgeTI9IjUyMi41Ii8+PGVsbGlwc2UgY3g9IjEyMzEiIGN5PSI1MzUuNDkyMiIgZmlsbD0iIzg0QkU4NCIgcng9IjMiIHJ5PSIzIiBzdHlsZT0ic3Ryb2tlOiMwMzgwNDg7c3Ryb2tlLXdpZHRoOjEuMDsiLz48dGV4dCBmaWxsPSIjMDAwMDAwIiBmb250LWZhbWlseT0ic2Fucy1zZXJpZiIgZm9udC1zaXplPSIxNCIgbGVuZ3RoQWRqdXN0PSJzcGFjaW5nIiB0ZXh0TGVuZ3RoPSI5MyIgeD0iMTI0MCIgeT0iNTM5LjczNDQiPkFjY2Vzb0RhdG9zKCk8L3RleHQ+PGVsbGlwc2UgY3g9IjEyMzEiIGN5PSI1NTAuNDc2NiIgZmlsbD0iIzg0QkU4NCIgcng9IjMiIHJ5PSIzIiBzdHlsZT0ic3Ryb2tlOiMwMzgwNDg7c3Ryb2tlLXdpZHRoOjEuMDsiLz48dGV4dCBmaWxsPSIjMDAwMDAwIiBmb250LWZhbWlseT0ic2Fucy1zZXJpZiIgZm9udC1zaXplPSIxNCIgbGVuZ3RoQWRqdXN0PSJzcGFjaW5nIiB0ZXh0LWRlY29yYXRpb249InVuZGVybGluZSIgdGV4dExlbmd0aD0iNTM0IiB4PSIxMjQwIiB5PSI1NTQuNzE4OCI+ZXhwb3J0YXJFcXVpcG9Ub0NzdihlcXVpcG9EZVBlcnNvbmFqZXM6TGlzdCZsdDtTdHJpbmcmZ3Q7LCByZWZBcmNoaXZvOlN0cmluZyk6dm9pZDwvdGV4dD48L2c+PCEtLWNsYXNzIFZpc3RhTGlzdGFkb1RleHRvcy0tPjxnIGlkPSJlbGVtX1Zpc3RhTGlzdGFkb1RleHRvcyI+PHJlY3QgY29kZUxpbmU9IjMzIiBmaWxsPSIjRjFGMUYxIiBoZWlnaHQ9IjkyLjk1MzEiIGlkPSJWaXN0YUxpc3RhZG9UZXh0b3MiIHJ4PSIyLjUiIHJ5PSIyLjUiIHN0eWxlPSJzdHJva2U6IzE4MTgxODtzdHJva2Utd2lkdGg6MC41OyIgd2lkdGg9IjI1MSIgeD0iMTgxNS41IiB5PSI0NzUiLz48ZWxsaXBzZSBjeD0iMTg3My43NSIgY3k9IjQ5MSIgZmlsbD0iI0FERDFCMiIgcng9IjExIiByeT0iMTEiIHN0eWxlPSJzdHJva2U6IzE4MTgxODtzdHJva2Utd2lkdGg6MS4wOyIvPjxwYXRoIGQ9Ik0xODcxLjM3NSw0OTUuMjUgTDE4NzEuMzc1LDQ5NyBMMTg3Ni4zMTI1LDQ5NyBMMTg3Ni4zMTI1LDQ5NS4yNSBMMTg3MS4zNzUsNDk1LjI1IFogTTE4NzIuMDYyNSw0OTUuOTM3NSBRMTg3Mi4wNjI1LDQ5NS45Mzc1IDE4NzIuMDYyNSw0ODYuNzUgTDE4NzAuMzEyNSw0ODYuNzUgUTE4NzAuMzEyNSw0ODYuNzUgMTg3MC4zMTI1LDQ5NS45Mzc1IEwxODcyLjA2MjUsNDk1LjkzNzUgWiBNMTg3NS42MjUsNDk1LjkzNzUgTDE4NzcuMzc1LDQ5NS45Mzc1IFExODc3LjM3NSw0OTUuOTM3NSAxODc3LjM3NSw0OTMuMTI1IEwxODc1LjYyNSw0OTMuMTI1IFExODc1LjYyNSw0OTMuMTI1IDE4NzUuNjI1LDQ5NS45Mzc1IFogTTE4NzUuNjI1LDQ4Ni43NSBRMTg3NS42MjUsNDg2Ljc1IDE4NzUuNjI1LDQ4OS41NjI1IEwxODc3LjM3NSw0ODkuNTYyNSBRMTg3Ny4zNzUsNDg5LjU2MjUgMTg3Ny4zNzUsNDg2Ljc1IEwxODc1LjYyNSw0ODYuNzUgWiBNMTg3MS4zNzUsNDg3LjQzNzUgTDE4NzYuMzEyNSw0ODcuNDM3NSBMMTg3Ni4zMTI1LDQ4NS42ODc1IEwxODcxLjM3NSw0ODUuNjg3NSBMMTg3MS4zNzUsNDg3LjQzNzUgWiAiIGZpbGw9IiMwMDAwMDAiLz48dGV4dCBmaWxsPSIjMDAwMDAwIiBmb250LWZhbWlseT0ic2Fucy1zZXJpZiIgZm9udC1zaXplPSIxNCIgbGVuZ3RoQWRqdXN0PSJzcGFjaW5nIiB0ZXh0TGVuZ3RoPSIxMjYiIHg9IjE4OTQuMjUiIHk9IjQ5Ni43NDIyIj5WaXN0YUxpc3RhZG9UZXh0b3M8L3RleHQ+PGxpbmUgc3R5bGU9InN0cm9rZTojMTgxODE4O3N0cm9rZS13aWR0aDowLjU7IiB4MT0iMTgxNi41IiB4Mj0iMjA2NS41IiB5MT0iNTA3IiB5Mj0iNTA3Ii8+PHJlY3QgZmlsbD0ibm9uZSIgaGVpZ2h0PSI2IiBzdHlsZT0ic3Ryb2tlOiNDODI5MzA7c3Ryb2tlLXdpZHRoOjEuMDsiIHdpZHRoPSI2IiB4PSIxODIzLjUiIHk9IjUxNi45OTIyIi8+PHRleHQgZmlsbD0iIzAwMDAwMCIgZm9udC1mYW1pbHk9InNhbnMtc2VyaWYiIGZvbnQtc2l6ZT0iMTQiIGxlbmd0aEFkanVzdD0ic3BhY2luZyIgdGV4dExlbmd0aD0iMjI1IiB4PSIxODM1LjUiIHk9IjUyNC4yMzQ0Ij5maWNoYUFsbWFjZW5hZGEgOiBWZWN0b3ImbHQ7RXF1aXBvJmd0OzwvdGV4dD48bGluZSBzdHlsZT0ic3Ryb2tlOiMxODE4MTg7c3Ryb2tlLXdpZHRoOjAuNTsiIHgxPSIxODE2LjUiIHgyPSIyMDY1LjUiIHkxPSI1MjkuOTg0NCIgeTI9IjUyOS45ODQ0Ii8+PGVsbGlwc2UgY3g9IjE4MjYuNSIgY3k9IjU0Mi45NzY2IiBmaWxsPSIjODRCRTg0IiByeD0iMyIgcnk9IjMiIHN0eWxlPSJzdHJva2U6IzAzODA0ODtzdHJva2Utd2lkdGg6MS4wOyIvPjx0ZXh0IGZpbGw9IiMwMDAwMDAiIGZvbnQtZmFtaWx5PSJzYW5zLXNlcmlmIiBmb250LXNpemU9IjE0IiBsZW5ndGhBZGp1c3Q9InNwYWNpbmciIHRleHRMZW5ndGg9IjE4NCIgeD0iMTgzNS41IiB5PSI1NDcuMjE4OCI+VmlzdGFMaXN0YWRvVGV4dG9zKEVxdWlwbyk8L3RleHQ+PGVsbGlwc2UgY3g9IjE4MjYuNSIgY3k9IjU1Ny45NjA5IiBmaWxsPSIjODRCRTg0IiByeD0iMyIgcnk9IjMiIHN0eWxlPSJzdHJva2U6IzAzODA0ODtzdHJva2Utd2lkdGg6MS4wOyIvPjx0ZXh0IGZpbGw9IiMwMDAwMDAiIGZvbnQtZmFtaWx5PSJzYW5zLXNlcmlmIiBmb250LXNpemU9IjE0IiBsZW5ndGhBZGp1c3Q9InNwYWNpbmciIHRleHRMZW5ndGg9IjY2IiB4PSIxODM1LjUiIHk9IjU2Mi4yMDMxIj5tb3N0cmFyKCk8L3RleHQ+PC9nPjwhLS1jbGFzcyBWaXN0YUFsdGFzLS0+PGcgaWQ9ImVsZW1fVmlzdGFBbHRhcyI+PHJlY3QgY29kZUxpbmU9IjQ5IiBmaWxsPSIjRjFGMUYxIiBoZWlnaHQ9IjIyNy44MTI1IiBpZD0iVmlzdGFBbHRhcyIgcng9IjIuNSIgcnk9IjIuNSIgc3R5bGU9InN0cm9rZTojMTgxODE4O3N0cm9rZS13aWR0aDowLjU7IiB3aWR0aD0iMjY0IiB4PSIyMTAyIiB5PSI0MDcuNSIvPjxlbGxpcHNlIGN4PSIyMTk0Ljc1IiBjeT0iNDIzLjUiIGZpbGw9IiNBREQxQjIiIHJ4PSIxMSIgcnk9IjExIiBzdHlsZT0ic3Ryb2tlOiMxODE4MTg7c3Ryb2tlLXdpZHRoOjEuMDsiLz48cGF0aCBkPSJNMjE5Mi4zNzUsNDI3Ljc1IEwyMTkyLjM3NSw0MjkuNSBMMjE5Ny4zMTI1LDQyOS41IEwyMTk3LjMxMjUsNDI3Ljc1IEwyMTkyLjM3NSw0MjcuNzUgWiBNMjE5My4wNjI1LDQyOC40Mzc1IFEyMTkzLjA2MjUsNDI4LjQzNzUgMjE5My4wNjI1LDQxOS4yNSBMMjE5MS4zMTI1LDQxOS4yNSBRMjE5MS4zMTI1LDQxOS4yNSAyMTkxLjMxMjUsNDI4LjQzNzUgTDIxOTMuMDYyNSw0MjguNDM3NSBaIE0yMTk2LjYyNSw0MjguNDM3NSBMMjE5OC4zNzUsNDI4LjQzNzUgUTIxOTguMzc1LDQyOC40Mzc1IDIxOTguMzc1LDQyNS42MjUgTDIxOTYuNjI1LDQyNS42MjUgUTIxOTYuNjI1LDQyNS42MjUgMjE5Ni42MjUsNDI4LjQzNzUgWiBNMjE5Ni42MjUsNDE5LjI1IFEyMTk2LjYyNSw0MTkuMjUgMjE5Ni42MjUsNDIyLjA2MjUgTDIxOTguMzc1LDQyMi4wNjI1IFEyMTk4LjM3NSw0MjIuMDYyNSAyMTk4LjM3NSw0MTkuMjUgTDIxOTYuNjI1LDQxOS4yNSBaIE0yMTkyLjM3NSw0MTkuOTM3NSBMMjE5Ny4zMTI1LDQxOS45Mzc1IEwyMTk3LjMxMjUsNDE4LjE4NzUgTDIxOTIuMzc1LDQxOC4xODc1IEwyMTkyLjM3NSw0MTkuOTM3NSBaICIgZmlsbD0iIzAwMDAwMCIvPjx0ZXh0IGZpbGw9IiMwMDAwMDAiIGZvbnQtZmFtaWx5PSJzYW5zLXNlcmlmIiBmb250LXNpemU9IjE0IiBsZW5ndGhBZGp1c3Q9InNwYWNpbmciIHRleHRMZW5ndGg9IjcwIiB4PSIyMjE1LjI1IiB5PSI0MjkuMjQyMiI+VmlzdGFBbHRhczwvdGV4dD48bGluZSBzdHlsZT0ic3Ryb2tlOiMxODE4MTg7c3Ryb2tlLXdpZHRoOjAuNTsiIHgxPSIyMTAzIiB4Mj0iMjM2NSIgeTE9IjQzOS41IiB5Mj0iNDM5LjUiLz48cmVjdCBmaWxsPSJub25lIiBoZWlnaHQ9IjYiIHN0eWxlPSJzdHJva2U6I0M4MjkzMDtzdHJva2Utd2lkdGg6MS4wOyIgd2lkdGg9IjYiIHg9IjIxMTAiIHk9IjQ0OS40OTIyIi8+PHRleHQgZmlsbD0iIzAwMDAwMCIgZm9udC1mYW1pbHk9InNhbnMtc2VyaWYiIGZvbnQtc2l6ZT0iMTQiIGxlbmd0aEFkanVzdD0ic3BhY2luZyIgdGV4dExlbmd0aD0iMjM4IiB4PSIyMTIyIiB5PSI0NTYuNzM0NCI+bGlzdGFOdWV2b3NUZXh0b3MgOiBWZWN0b3ImbHQ7U3RyaW5nJmd0OzwvdGV4dD48cmVjdCBmaWxsPSJub25lIiBoZWlnaHQ9IjYiIHN0eWxlPSJzdHJva2U6I0M4MjkzMDtzdHJva2Utd2lkdGg6MS4wOyIgd2lkdGg9IjYiIHg9IjIxMTAiIHk9IjQ2NC40NzY2Ii8+PHRleHQgZmlsbD0iIzAwMDAwMCIgZm9udC1mYW1pbHk9InNhbnMtc2VyaWYiIGZvbnQtc2l6ZT0iMTQiIGxlbmd0aEFkanVzdD0ic3BhY2luZyIgdGV4dExlbmd0aD0iMjEyIiB4PSIyMTIyIiB5PSI0NzEuNzE4OCI+cGV0aWNpb25Ob21icmVKdWdhZG9yIDogU3RyaW5nPC90ZXh0PjxyZWN0IGZpbGw9Im5vbmUiIGhlaWdodD0iNiIgc3R5bGU9InN0cm9rZTojQzgyOTMwO3N0cm9rZS13aWR0aDoxLjA7IiB3aWR0aD0iNiIgeD0iMjExMCIgeT0iNDc5LjQ2MDkiLz48dGV4dCBmaWxsPSIjMDAwMDAwIiBmb250LWZhbWlseT0ic2Fucy1zZXJpZiIgZm9udC1zaXplPSIxNCIgbGVuZ3RoQWRqdXN0PSJzcGFjaW5nIiB0ZXh0TGVuZ3RoPSIyMjUiIHg9IjIxMjIiIHk9IjQ4Ni43MDMxIj5wZXRpY2lvbk5vbWJyZVBlcnNvbmFqZSA6IFN0cmluZzwvdGV4dD48bGluZSBzdHlsZT0ic3Ryb2tlOiMxODE4MTg7c3Ryb2tlLXdpZHRoOjAuNTsiIHgxPSIyMTAzIiB4Mj0iMjM2NSIgeTE9IjQ5Mi40NTMxIiB5Mj0iNDkyLjQ1MzEiLz48ZWxsaXBzZSBjeD0iMjExMyIgY3k9IjUwNS40NDUzIiBmaWxsPSIjODRCRTg0IiByeD0iMyIgcnk9IjMiIHN0eWxlPSJzdHJva2U6IzAzODA0ODtzdHJva2Utd2lkdGg6MS4wOyIvPjx0ZXh0IGZpbGw9IiMwMDAwMDAiIGZvbnQtZmFtaWx5PSJzYW5zLXNlcmlmIiBmb250LXNpemU9IjE0IiBsZW5ndGhBZGp1c3Q9InNwYWNpbmciIHRleHRMZW5ndGg9Ijg2IiB4PSIyMTIyIiB5PSI1MDkuNjg3NSI+VmlzdGFBbHRhcygpPC90ZXh0PjxyZWN0IGZpbGw9IiNGMjRENUMiIGhlaWdodD0iNiIgc3R5bGU9InN0cm9rZTojQzgyOTMwO3N0cm9rZS13aWR0aDoxLjA7IiB3aWR0aD0iNiIgeD0iMjExMCIgeT0iNTE3LjQyOTciLz48dGV4dCBmaWxsPSIjMDAwMDAwIiBmb250LWZhbWlseT0ic2Fucy1zZXJpZiIgZm9udC1zaXplPSIxNCIgbGVuZ3RoQWRqdXN0PSJzcGFjaW5nIiB0ZXh0TGVuZ3RoPSIxNDMiIHg9IjIxMjIiIHk9IjUyNC42NzE5Ij5tb3N0cmFyQXZpc28oU3RyaW5nKTwvdGV4dD48cmVjdCBmaWxsPSIjRjI0RDVDIiBoZWlnaHQ9IjYiIHN0eWxlPSJzdHJva2U6I0M4MjkzMDtzdHJva2Utd2lkdGg6MS4wOyIgd2lkdGg9IjYiIHg9IjIxMTAiIHk9IjUzMi40MTQxIi8+PHRleHQgZmlsbD0iIzAwMDAwMCIgZm9udC1mYW1pbHk9InNhbnMtc2VyaWYiIGZvbnQtc2l6ZT0iMTQiIGxlbmd0aEFkanVzdD0ic3BhY2luZyIgdGV4dExlbmd0aD0iMTcyIiB4PSIyMTIyIiB5PSI1MzkuNjU2MyI+cHJlZ3VudGFyTm9tYnJlSnVnYWRvcigpPC90ZXh0PjxyZWN0IGZpbGw9IiNGMjRENUMiIGhlaWdodD0iNiIgc3R5bGU9InN0cm9rZTojQzgyOTMwO3N0cm9rZS13aWR0aDoxLjA7IiB3aWR0aD0iNiIgeD0iMjExMCIgeT0iNTQ3LjM5ODQiLz48dGV4dCBmaWxsPSIjMDAwMDAwIiBmb250LWZhbWlseT0ic2Fucy1zZXJpZiIgZm9udC1zaXplPSIxNCIgbGVuZ3RoQWRqdXN0PSJzcGFjaW5nIiB0ZXh0TGVuZ3RoPSIxODUiIHg9IjIxMjIiIHk9IjU1NC42NDA2Ij5wcmVndW50YXJOb21icmVQZXJzb25hamUoKTwvdGV4dD48cmVjdCBmaWxsPSIjRjI0RDVDIiBoZWlnaHQ9IjYiIHN0eWxlPSJzdHJva2U6I0M4MjkzMDtzdHJva2Utd2lkdGg6MS4wOyIgd2lkdGg9IjYiIHg9IjIxMTAiIHk9IjU2Mi4zODI4Ii8+PHRleHQgZmlsbD0iIzAwMDAwMCIgZm9udC1mYW1pbHk9InNhbnMtc2VyaWYiIGZvbnQtc2l6ZT0iMTQiIGxlbmd0aEFkanVzdD0ic3BhY2luZyIgdGV4dExlbmd0aD0iMTQyIiB4PSIyMTIyIiB5PSI1NjkuNjI1Ij5wcmVndW50YXJQcm9mZXNpb24oKTwvdGV4dD48cmVjdCBmaWxsPSIjRjI0RDVDIiBoZWlnaHQ9IjYiIHN0eWxlPSJzdHJva2U6I0M4MjkzMDtzdHJva2Utd2lkdGg6MS4wOyIgd2lkdGg9IjYiIHg9IjIxMTAiIHk9IjU3Ny4zNjcyIi8+PHRleHQgZmlsbD0iIzAwMDAwMCIgZm9udC1mYW1pbHk9InNhbnMtc2VyaWYiIGZvbnQtc2l6ZT0iMTQiIGxlbmd0aEFkanVzdD0ic3BhY2luZyIgdGV4dExlbmd0aD0iMTA3IiB4PSIyMTIyIiB5PSI1ODQuNjA5NCI+cHJlZ3VudGFyUmF6YSgpPC90ZXh0PjxyZWN0IGZpbGw9IiNGMjRENUMiIGhlaWdodD0iNiIgc3R5bGU9InN0cm9rZTojQzgyOTMwO3N0cm9rZS13aWR0aDoxLjA7IiB3aWR0aD0iNiIgeD0iMjExMCIgeT0iNTkyLjM1MTYiLz48dGV4dCBmaWxsPSIjMDAwMDAwIiBmb250LWZhbWlseT0ic2Fucy1zZXJpZiIgZm9udC1zaXplPSIxNCIgbGVuZ3RoQWRqdXN0PSJzcGFjaW5nIiB0ZXh0TGVuZ3RoPSIxMzYiIHg9IjIxMjIiIHk9IjU5OS41OTM4Ij5wcmVndW50YXJBcm1hZHVyYSgpPC90ZXh0PjxyZWN0IGZpbGw9IiNGMjRENUMiIGhlaWdodD0iNiIgc3R5bGU9InN0cm9rZTojQzgyOTMwO3N0cm9rZS13aWR0aDoxLjA7IiB3aWR0aD0iNiIgeD0iMjExMCIgeT0iNjA3LjMzNTkiLz48dGV4dCBmaWxsPSIjMDAwMDAwIiBmb250LWZhbWlseT0ic2Fucy1zZXJpZiIgZm9udC1zaXplPSIxNCIgbGVuZ3RoQWRqdXN0PSJzcGFjaW5nIiB0ZXh0TGVuZ3RoPSIxMDgiIHg9IjIxMjIiIHk9IjYxNC41NzgxIj5wcmVndW50YXJBcm1hKCk8L3RleHQ+PGVsbGlwc2UgY3g9IjIxMTMiIGN5PSI2MjUuMzIwMyIgZmlsbD0iIzg0QkU4NCIgcng9IjMiIHJ5PSIzIiBzdHlsZT0ic3Ryb2tlOiMwMzgwNDg7c3Ryb2tlLXdpZHRoOjEuMDsiLz48dGV4dCBmaWxsPSIjMDAwMDAwIiBmb250LWZhbWlseT0ic2Fucy1zZXJpZiIgZm9udC1zaXplPSIxNCIgbGVuZ3RoQWRqdXN0PSJzcGFjaW5nIiB0ZXh0TGVuZ3RoPSIxMjEiIHg9IjIxMjIiIHk9IjYyOS41NjI1Ij5jYXJnYXJQZXJzb25hamUoKTwvdGV4dD48L2c+PCEtLWNsYXNzIFByb2Zlc2lvbi0tPjxnIGlkPSJlbGVtX1Byb2Zlc2lvbiI+PHJlY3QgY29kZUxpbmU9IjEyNiIgZmlsbD0iI0YxRjFGMSIgaGVpZ2h0PSIxMDcuOTM3NSIgaWQ9IlByb2Zlc2lvbiIgcng9IjIuNSIgcnk9IjIuNSIgc3R5bGU9InN0cm9rZTojMTgxODE4O3N0cm9rZS13aWR0aDowLjU7IiB3aWR0aD0iOTUiIHg9IjUxNS41IiB5PSI4NTMiLz48ZWxsaXBzZSBjeD0iNTMwLjUiIGN5PSI4NjkiIGZpbGw9IiNFQjkzN0YiIHJ4PSIxMSIgcnk9IjExIiBzdHlsZT0ic3Ryb2tlOiMxODE4MTg7c3Ryb2tlLXdpZHRoOjEuMDsiLz48cGF0aCBkPSJNNTM0LjEyNSw4NzUgTDUzNC4xMjUsODczLjI1IEw1MjguODEyNSw4NzMuMjUgUTUyOC44MTI1LDg3My4yNSA1MjguODEyNSw4NjkuNjg3NSBMNTMzLjA2MjUsODY5LjY4NzUgTDUzMy4wNjI1LDg2Ny45Mzc1IEw1MjguODEyNSw4NjcuOTM3NSBMNTI4LjgxMjUsODY1LjQzNzUgTDUzNC4xMjUsODY1LjQzNzUgTDUzNC4xMjUsODYzLjY4NzUgTDUyNy4wNjI1LDg2My42ODc1IFE1MjcuMDYyNSw4NjMuNjg3NSA1MjcuMDYyNSw4NzUgTDUzNC4xMjUsODc1IFogIiBmaWxsPSIjMDAwMDAwIi8+PHRleHQgZmlsbD0iIzAwMDAwMCIgZm9udC1mYW1pbHk9InNhbnMtc2VyaWYiIGZvbnQtc2l6ZT0iMTQiIGxlbmd0aEFkanVzdD0ic3BhY2luZyIgdGV4dExlbmd0aD0iNjMiIHg9IjU0NC41IiB5PSI4NzQuNzQyMiI+UHJvZmVzaW9uPC90ZXh0PjxsaW5lIHN0eWxlPSJzdHJva2U6IzE4MTgxODtzdHJva2Utd2lkdGg6MC41OyIgeDE9IjUxNi41IiB4Mj0iNjA5LjUiIHkxPSI4ODUiIHkyPSI4ODUiLz48dGV4dCBmaWxsPSIjMDAwMDAwIiBmb250LWZhbWlseT0ic2Fucy1zZXJpZiIgZm9udC1zaXplPSIxNCIgbGVuZ3RoQWRqdXN0PSJzcGFjaW5nIiB0ZXh0TGVuZ3RoPSIzNSIgeD0iNTIxLjUiIHk9IjkwMi4yMzQ0Ij5CYXJkbzwvdGV4dD48dGV4dCBmaWxsPSIjMDAwMDAwIiBmb250LWZhbWlseT0ic2Fucy1zZXJpZiIgZm9udC1zaXplPSIxNCIgbGVuZ3RoQWRqdXN0PSJzcGFjaW5nIiB0ZXh0TGVuZ3RoPSI0OSIgeD0iNTIxLjUiIHk9IjkxNy4yMTg4Ij5Bc2VzaW5vPC90ZXh0Pjx0ZXh0IGZpbGw9IiMwMDAwMDAiIGZvbnQtZmFtaWx5PSJzYW5zLXNlcmlmIiBmb250LXNpemU9IjE0IiBsZW5ndGhBZGp1c3Q9InNwYWNpbmciIHRleHRMZW5ndGg9IjI4IiB4PSI1MjEuNSIgeT0iOTMyLjIwMzEiPk1hZ288L3RleHQ+PHRleHQgZmlsbD0iIzAwMDAwMCIgZm9udC1mYW1pbHk9InNhbnMtc2VyaWYiIGZvbnQtc2l6ZT0iMTQiIGxlbmd0aEFkanVzdD0ic3BhY2luZyIgdGV4dExlbmd0aD0iNTYiIHg9IjUyMS41IiB5PSI5NDcuMTg3NSI+R3VlcnJlcm88L3RleHQ+PGxpbmUgc3R5bGU9InN0cm9rZTojMTgxODE4O3N0cm9rZS13aWR0aDowLjU7IiB4MT0iNTE2LjUiIHgyPSI2MDkuNSIgeTE9Ijk1Mi45Mzc1IiB5Mj0iOTUyLjkzNzUiLz48L2c+PCEtLWNsYXNzIFJhemEtLT48ZyBpZD0iZWxlbV9SYXphIj48cmVjdCBjb2RlTGluZT0iMTMzIiBmaWxsPSIjRjFGMUYxIiBoZWlnaHQ9IjEwNy45Mzc1IiBpZD0iUmF6YSIgcng9IjIuNSIgcnk9IjIuNSIgc3R5bGU9InN0cm9rZTojMTgxODE4O3N0cm9rZS13aWR0aDowLjU7IiB3aWR0aD0iNjAiIHg9IjY0NiIgeT0iODUzIi8+PGVsbGlwc2UgY3g9IjY2MSIgY3k9Ijg2OSIgZmlsbD0iI0VCOTM3RiIgcng9IjExIiByeT0iMTEiIHN0eWxlPSJzdHJva2U6IzE4MTgxODtzdHJva2Utd2lkdGg6MS4wOyIvPjxwYXRoIGQ9Ik02NjQuNjI1LDg3NSBMNjY0LjYyNSw4NzMuMjUgTDY1OS4zMTI1LDg3My4yNSBRNjU5LjMxMjUsODczLjI1IDY1OS4zMTI1LDg2OS42ODc1IEw2NjMuNTYyNSw4NjkuNjg3NSBMNjYzLjU2MjUsODY3LjkzNzUgTDY1OS4zMTI1LDg2Ny45Mzc1IEw2NTkuMzEyNSw4NjUuNDM3NSBMNjY0LjYyNSw4NjUuNDM3NSBMNjY0LjYyNSw4NjMuNjg3NSBMNjU3LjU2MjUsODYzLjY4NzUgUTY1Ny41NjI1LDg2My42ODc1IDY1Ny41NjI1LDg3NSBMNjY0LjYyNSw4NzUgWiAiIGZpbGw9IiMwMDAwMDAiLz48dGV4dCBmaWxsPSIjMDAwMDAwIiBmb250LWZhbWlseT0ic2Fucy1zZXJpZiIgZm9udC1zaXplPSIxNCIgbGVuZ3RoQWRqdXN0PSJzcGFjaW5nIiB0ZXh0TGVuZ3RoPSIyOCIgeD0iNjc1IiB5PSI4NzQuNzQyMiI+UmF6YTwvdGV4dD48bGluZSBzdHlsZT0ic3Ryb2tlOiMxODE4MTg7c3Ryb2tlLXdpZHRoOjAuNTsiIHgxPSI2NDciIHgyPSI3MDUiIHkxPSI4ODUiIHkyPSI4ODUiLz48dGV4dCBmaWxsPSIjMDAwMDAwIiBmb250LWZhbWlseT0ic2Fucy1zZXJpZiIgZm9udC1zaXplPSIxNCIgbGVuZ3RoQWRqdXN0PSJzcGFjaW5nIiB0ZXh0TGVuZ3RoPSI0MyIgeD0iNjUyIiB5PSI5MDIuMjM0NCI+SHVtYW5vPC90ZXh0Pjx0ZXh0IGZpbGw9IiMwMDAwMDAiIGZvbnQtZmFtaWx5PSJzYW5zLXNlcmlmIiBmb250LXNpemU9IjE0IiBsZW5ndGhBZGp1c3Q9InNwYWNpbmciIHRleHRMZW5ndGg9IjI4IiB4PSI2NTIiIHk9IjkxNy4yMTg4Ij5FbGZvPC90ZXh0Pjx0ZXh0IGZpbGw9IiMwMDAwMDAiIGZvbnQtZmFtaWx5PSJzYW5zLXNlcmlmIiBmb250LXNpemU9IjE0IiBsZW5ndGhBZGp1c3Q9InNwYWNpbmciIHRleHRMZW5ndGg9IjI4IiB4PSI2NTIiIHk9IjkzMi4yMDMxIj5PcmNvPC90ZXh0Pjx0ZXh0IGZpbGw9IiMwMDAwMDAiIGZvbnQtZmFtaWx5PSJzYW5zLXNlcmlmIiBmb250LXNpemU9IjE0IiBsZW5ndGhBZGp1c3Q9InNwYWNpbmciIHRleHRMZW5ndGg9IjM1IiB4PSI2NTIiIHk9Ijk0Ny4xODc1Ij5FbmFubzwvdGV4dD48bGluZSBzdHlsZT0ic3Ryb2tlOiMxODE4MTg7c3Ryb2tlLXdpZHRoOjAuNTsiIHgxPSI2NDciIHgyPSI3MDUiIHkxPSI5NTIuOTM3NSIgeTI9Ijk1Mi45Mzc1Ii8+PC9nPjwhLS1jbGFzcyBBcm1hZHVyYS0tPjxnIGlkPSJlbGVtX0FybWFkdXJhIj48cmVjdCBjb2RlTGluZT0iMTQwIiBmaWxsPSIjRjFGMUYxIiBoZWlnaHQ9IjkyLjk1MzEiIGlkPSJBcm1hZHVyYSIgcng9IjIuNSIgcnk9IjIuNSIgc3R5bGU9InN0cm9rZTojMTgxODE4O3N0cm9rZS13aWR0aDowLjU7IiB3aWR0aD0iODkiIHg9Ijc0MS41IiB5PSI4NjAuNSIvPjxlbGxpcHNlIGN4PSI3NTYuNSIgY3k9Ijg3Ni41IiBmaWxsPSIjRUI5MzdGIiByeD0iMTEiIHJ5PSIxMSIgc3R5bGU9InN0cm9rZTojMTgxODE4O3N0cm9rZS13aWR0aDoxLjA7Ii8+PHBhdGggZD0iTTc2MC4xMjUsODgyLjUgTDc2MC4xMjUsODgwLjc1IEw3NTQuODEyNSw4ODAuNzUgUTc1NC44MTI1LDg4MC43NSA3NTQuODEyNSw4NzcuMTg3NSBMNzU5LjA2MjUsODc3LjE4NzUgTDc1OS4wNjI1LDg3NS40Mzc1IEw3NTQuODEyNSw4NzUuNDM3NSBMNzU0LjgxMjUsODcyLjkzNzUgTDc2MC4xMjUsODcyLjkzNzUgTDc2MC4xMjUsODcxLjE4NzUgTDc1My4wNjI1LDg3MS4xODc1IFE3NTMuMDYyNSw4NzEuMTg3NSA3NTMuMDYyNSw4ODIuNSBMNzYwLjEyNSw4ODIuNSBaICIgZmlsbD0iIzAwMDAwMCIvPjx0ZXh0IGZpbGw9IiMwMDAwMDAiIGZvbnQtZmFtaWx5PSJzYW5zLXNlcmlmIiBmb250LXNpemU9IjE0IiBsZW5ndGhBZGp1c3Q9InNwYWNpbmciIHRleHRMZW5ndGg9IjU3IiB4PSI3NzAuNSIgeT0iODgyLjI0MjIiPkFybWFkdXJhPC90ZXh0PjxsaW5lIHN0eWxlPSJzdHJva2U6IzE4MTgxODtzdHJva2Utd2lkdGg6MC41OyIgeDE9Ijc0Mi41IiB4Mj0iODI5LjUiIHkxPSI4OTIuNSIgeTI9Ijg5Mi41Ii8+PHRleHQgZmlsbD0iIzAwMDAwMCIgZm9udC1mYW1pbHk9InNhbnMtc2VyaWYiIGZvbnQtc2l6ZT0iMTQiIGxlbmd0aEFkanVzdD0ic3BhY2luZyIgdGV4dExlbmd0aD0iNDIiIHg9Ijc0Ny41IiB5PSI5MDkuNzM0NCI+UGVzYWRhPC90ZXh0Pjx0ZXh0IGZpbGw9IiMwMDAwMDAiIGZvbnQtZmFtaWx5PSJzYW5zLXNlcmlmIiBmb250LXNpemU9IjE0IiBsZW5ndGhBZGp1c3Q9InNwYWNpbmciIHRleHRMZW5ndGg9IjM1IiB4PSI3NDcuNSIgeT0iOTI0LjcxODgiPmN1ZXJvPC90ZXh0Pjx0ZXh0IGZpbGw9IiMwMDAwMDAiIGZvbnQtZmFtaWx5PSJzYW5zLXNlcmlmIiBmb250LXNpemU9IjE0IiBsZW5ndGhBZGp1c3Q9InNwYWNpbmciIHRleHRMZW5ndGg9IjQyIiB4PSI3NDcuNSIgeT0iOTM5LjcwMzEiPlR1bmljYTwvdGV4dD48bGluZSBzdHlsZT0ic3Ryb2tlOiMxODE4MTg7c3Ryb2tlLXdpZHRoOjAuNTsiIHgxPSI3NDIuNSIgeDI9IjgyOS41IiB5MT0iOTQ1LjQ1MzEiIHkyPSI5NDUuNDUzMSIvPjwvZz48IS0tY2xhc3MgQXJtYS0tPjxnIGlkPSJlbGVtX0FybWEiPjxyZWN0IGNvZGVMaW5lPSIxNDYiIGZpbGw9IiNGMUYxRjEiIGhlaWdodD0iMTA3LjkzNzUiIGlkPSJBcm1hIiByeD0iMi41IiByeT0iMi41IiBzdHlsZT0ic3Ryb2tlOiMxODE4MTg7c3Ryb2tlLXdpZHRoOjAuNTsiIHdpZHRoPSI2OSIgeD0iODY1LjUiIHk9Ijg1MyIvPjxlbGxpcHNlIGN4PSI4ODQuMSIgY3k9Ijg2OSIgZmlsbD0iI0VCOTM3RiIgcng9IjExIiByeT0iMTEiIHN0eWxlPSJzdHJva2U6IzE4MTgxODtzdHJva2Utd2lkdGg6MS4wOyIvPjxwYXRoIGQ9Ik04ODcuNzI1LDg3NSBMODg3LjcyNSw4NzMuMjUgTDg4Mi40MTI1LDg3My4yNSBRODgyLjQxMjUsODczLjI1IDg4Mi40MTI1LDg2OS42ODc1IEw4ODYuNjYyNSw4NjkuNjg3NSBMODg2LjY2MjUsODY3LjkzNzUgTDg4Mi40MTI1LDg2Ny45Mzc1IEw4ODIuNDEyNSw4NjUuNDM3NSBMODg3LjcyNSw4NjUuNDM3NSBMODg3LjcyNSw4NjMuNjg3NSBMODgwLjY2MjUsODYzLjY4NzUgUTg4MC42NjI1LDg2My42ODc1IDg4MC42NjI1LDg3NSBMODg3LjcyNSw4NzUgWiAiIGZpbGw9IiMwMDAwMDAiLz48dGV4dCBmaWxsPSIjMDAwMDAwIiBmb250LWZhbWlseT0ic2Fucy1zZXJpZiIgZm9udC1zaXplPSIxNCIgbGVuZ3RoQWRqdXN0PSJzcGFjaW5nIiB0ZXh0TGVuZ3RoPSIyOSIgeD0iODk4LjkiIHk9Ijg3NC43NDIyIj5Bcm1hPC90ZXh0PjxsaW5lIHN0eWxlPSJzdHJva2U6IzE4MTgxODtzdHJva2Utd2lkdGg6MC41OyIgeDE9Ijg2Ni41IiB4Mj0iOTMzLjUiIHkxPSI4ODUiIHkyPSI4ODUiLz48dGV4dCBmaWxsPSIjMDAwMDAwIiBmb250LWZhbWlseT0ic2Fucy1zZXJpZiIgZm9udC1zaXplPSIxNCIgbGVuZ3RoQWRqdXN0PSJzcGFjaW5nIiB0ZXh0TGVuZ3RoPSIzNSIgeD0iODcxLjUiIHk9IjkwMi4yMzQ0Ij5IYWNoYTwvdGV4dD48dGV4dCBmaWxsPSIjMDAwMDAwIiBmb250LWZhbWlseT0ic2Fucy1zZXJpZiIgZm9udC1zaXplPSIxNCIgbGVuZ3RoQWRqdXN0PSJzcGFjaW5nIiB0ZXh0TGVuZ3RoPSIyOCIgeD0iODcxLjUiIHk9IjkxNy4yMTg4Ij5EYWdhPC90ZXh0Pjx0ZXh0IGZpbGw9IiMwMDAwMDAiIGZvbnQtZmFtaWx5PSJzYW5zLXNlcmlmIiBmb250LXNpemU9IjE0IiBsZW5ndGhBZGp1c3Q9InNwYWNpbmciIHRleHRMZW5ndGg9IjQyIiB4PSI4NzEuNSIgeT0iOTMyLjIwMzEiPkVzcGFkYTwvdGV4dD48dGV4dCBmaWxsPSIjMDAwMDAwIiBmb250LWZhbWlseT0ic2Fucy1zZXJpZiIgZm9udC1zaXplPSIxNCIgbGVuZ3RoQWRqdXN0PSJzcGFjaW5nIiB0ZXh0TGVuZ3RoPSI1NyIgeD0iODcxLjUiIHk9Ijk0Ny4xODc1Ij5Hcmltb3JpbzwvdGV4dD48bGluZSBzdHlsZT0ic3Ryb2tlOiMxODE4MTg7c3Ryb2tlLXdpZHRoOjAuNTsiIHgxPSI4NjYuNSIgeDI9IjkzMy41IiB5MT0iOTUyLjkzNzUiIHkyPSI5NTIuOTM3NSIvPjwvZz48IS0tbGluayBWaXN0YUdlbmVyYWwgdG8gVmlzdGFHZW5lcmFsRXhjZXB0aW9uLS0+PGcgaWQ9ImxpbmtfVmlzdGFHZW5lcmFsX1Zpc3RhR2VuZXJhbEV4Y2VwdGlvbiI+PHBhdGggY29kZUxpbmU9IjMiIGQ9Ik0xMDg1LDk4My43MSBDMTA4NSwxMDA0LjkgMTA4NSwxMDI3LjIgMTA4NSwxMDQ1LjggIiBmaWxsPSJub25lIiBpZD0iVmlzdGFHZW5lcmFsLXRvLVZpc3RhR2VuZXJhbEV4Y2VwdGlvbiIgc3R5bGU9InN0cm9rZTojMTgxODE4O3N0cm9rZS13aWR0aDoxLjA7Ii8+PHBvbHlnb24gZmlsbD0ibm9uZSIgcG9pbnRzPSIxMDkyLDEwNDUuOTgsMTA4NSwxMDY1Ljk4LDEwNzgsMTA0NS45OCwxMDkyLDEwNDUuOTgiIHN0eWxlPSJzdHJva2U6IzE4MTgxODtzdHJva2Utd2lkdGg6MS4wOyIvPjx0ZXh0IGZpbGw9IiMwMDAwMDAiIGZvbnQtZmFtaWx5PSJzYW5zLXNlcmlmIiBmb250LXNpemU9IjEzIiBsZW5ndGhBZGp1c3Q9InNwYWNpbmciIHRleHRMZW5ndGg9IjIxIiB4PSIxMDg2IiB5PSIxMDM0LjI4OTEiPnVzYTwvdGV4dD48L2c+PCEtLWxpbmsgVmlzdGFHZW5lcmFsRXhjZXB0aW9uIHRvIEV4Y2VwdGlvbi0tPjxnIGlkPSJsaW5rX1Zpc3RhR2VuZXJhbEV4Y2VwdGlvbl9FeGNlcHRpb24iPjxwYXRoIGNvZGVMaW5lPSI0IiBkPSJNMTA4NSwxMTE0LjA0IEMxMDg1LDExMjkuNDIgMTA4NSwxMTUwLjEyIDEwODUsMTE2OC41MyAiIGZpbGw9Im5vbmUiIGlkPSJWaXN0YUdlbmVyYWxFeGNlcHRpb24tdG8tRXhjZXB0aW9uIiBzdHlsZT0ic3Ryb2tlOiMxODE4MTg7c3Ryb2tlLXdpZHRoOjEuMDsiLz48cG9seWdvbiBmaWxsPSJub25lIiBwb2ludHM9IjEwOTIsMTE2OC42MywxMDg1LDExODguNjMsMTA3OCwxMTY4LjYzLDEwOTIsMTE2OC42MyIgc3R5bGU9InN0cm9rZTojMTgxODE4O3N0cm9rZS13aWR0aDoxLjA7Ii8+PHRleHQgZmlsbD0iIzAwMDAwMCIgZm9udC1mYW1pbHk9InNhbnMtc2VyaWYiIGZvbnQtc2l6ZT0iMTMiIGxlbmd0aEFkanVzdD0ic3BhY2luZyIgdGV4dExlbmd0aD0iMzUiIHg9IjEwODYiIHk9IjExNTcuMjg5MSI+ZXMgdW48L3RleHQ+PC9nPjwhLS1saW5rIFBlcnNvbmFqZUZpY2hhIHRvIFBlcnNvbmFqZUZpY2hhVGVzdC0tPjxnIGlkPSJsaW5rX1BlcnNvbmFqZUZpY2hhX1BlcnNvbmFqZUZpY2hhVGVzdCI+PHBhdGggY29kZUxpbmU9IjYiIGQ9Ik00NjguODgsNjM4LjEgQzM3OC41NCw2OTEuMTQgMjcyLjc3LDc1Ni44NiAxODIsODIzIEMxNTguMTYsODQwLjM3IDEzMyw4NjIuMjcgMTE0LjQyLDg3OS4yMSAiIGZpbGw9Im5vbmUiIGlkPSJQZXJzb25hamVGaWNoYS10by1QZXJzb25hamVGaWNoYVRlc3QiIHN0eWxlPSJzdHJva2U6IzE4MTgxODtzdHJva2Utd2lkdGg6MS4wO3N0cm9rZS1kYXNoYXJyYXk6Ny4wLDcuMDsiLz48cG9seWdvbiBmaWxsPSIjMTgxODE4IiBwb2ludHM9IjExMC4zMiw4ODIuOTcsMTE5LjY2MDYsODc5Ljg0NjksMTE0LjAwOTMsODc5LjU5NTMsMTE0LjI2MSw4NzMuOTQ0LDExMC4zMiw4ODIuOTciIHN0eWxlPSJzdHJva2U6IzE4MTgxODtzdHJva2Utd2lkdGg6MS4wOyIvPjx0ZXh0IGZpbGw9IiMwMDAwMDAiIGZvbnQtZmFtaWx5PSJzYW5zLXNlcmlmIiBmb250LXNpemU9IjEzIiBsZW5ndGhBZGp1c3Q9InNwYWNpbmciIHRleHRMZW5ndGg9IjIxIiB4PSIyMzUiIHk9Ijc5MS4yODkxIj51c2E8L3RleHQ+PC9nPjwhLS1saW5rIEVxdWlwbyB0byBFcXVpcG9UZXN0LS0+PGcgaWQ9ImxpbmtfRXF1aXBvX0VxdWlwb1Rlc3QiPjxwYXRoIGNvZGVMaW5lPSI3IiBkPSJNMzQwLDk5MS4wOCBDMzQwLDEwMTYuMDYgMzQwLDEwNDEuNzkgMzQwLDEwNjAuNjEgIiBmaWxsPSJub25lIiBpZD0iRXF1aXBvLXRvLUVxdWlwb1Rlc3QiIHN0eWxlPSJzdHJva2U6IzE4MTgxODtzdHJva2Utd2lkdGg6MS4wO3N0cm9rZS1kYXNoYXJyYXk6Ny4wLDcuMDsiLz48cG9seWdvbiBmaWxsPSIjMTgxODE4IiBwb2ludHM9IjM0MCwxMDY1LjcyLDM0NCwxMDU2LjcyLDM0MCwxMDYwLjcyLDMzNiwxMDU2LjcyLDM0MCwxMDY1LjcyIiBzdHlsZT0ic3Ryb2tlOiMxODE4MTg7c3Ryb2tlLXdpZHRoOjEuMDsiLz48dGV4dCBmaWxsPSIjMDAwMDAwIiBmb250LWZhbWlseT0ic2Fucy1zZXJpZiIgZm9udC1zaXplPSIxMyIgbGVuZ3RoQWRqdXN0PSJzcGFjaW5nIiB0ZXh0TGVuZ3RoPSIyMSIgeD0iMzQxIiB5PSIxMDM0LjI4OTEiPnVzYTwvdGV4dD48L2c+PCEtLWxpbmsgQ29udHJvbEJ1Y2xlUHJpbmNpcGFsIHRvIFZpc3RhTWVudS0tPjxnIGlkPSJsaW5rX0NvbnRyb2xCdWNsZVByaW5jaXBhbF9WaXN0YU1lbnUiPjxwYXRoIGNvZGVMaW5lPSI5IiBkPSJNMTM1My45MSwxODUuNDQgQzEzMDIuMywyMTQuODMgMTI0Ni4xNywyNTIuMTQgMTIwMiwyOTUgQzExNTYuMzYsMzM5LjI5IDExMTcuOTIsNDAwLjM3IDEwOTEuOTYsNDQ3Ljc5ICIgZmlsbD0ibm9uZSIgaWQ9IkNvbnRyb2xCdWNsZVByaW5jaXBhbC10by1WaXN0YU1lbnUiIHN0eWxlPSJzdHJva2U6IzE4MTgxODtzdHJva2Utd2lkdGg6MS4wO3N0cm9rZS1kYXNoYXJyYXk6Ny4wLDcuMDsiLz48cG9seWdvbiBmaWxsPSIjMTgxODE4IiBwb2ludHM9IjEwODkuNDksNDUyLjM0LDEwOTcuMzA0NCw0NDYuMzQ1NCwxMDkxLjg3OTIsNDQ3Ljk0NzgsMTA5MC4yNzY5LDQ0Mi41MjI2LDEwODkuNDksNDUyLjM0IiBzdHlsZT0ic3Ryb2tlOiMxODE4MTg7c3Ryb2tlLXdpZHRoOjEuMDsiLz48dGV4dCBmaWxsPSIjMDAwMDAwIiBmb250LWZhbWlseT0ic2Fucy1zZXJpZiIgZm9udC1zaXplPSIxMyIgbGVuZ3RoQWRqdXN0PSJzcGFjaW5nIiB0ZXh0TGVuZ3RoPSIyMSIgeD0iMTI1NCIgeT0iMjYzLjI4OTEiPnVzYTwvdGV4dD48L2c+PCEtLWxpbmsgQ29udHJvbEJ1Y2xlUHJpbmNpcGFsIHRvIEFjY2Vzb0RhdG9zLS0+PGcgaWQ9ImxpbmtfQ29udHJvbEJ1Y2xlUHJpbmNpcGFsX0FjY2Vzb0RhdG9zIj48cGF0aCBjb2RlTGluZT0iMTAiIGQ9Ik0xNTAwLDIyMC4xMSBDMTUwMCwzMDMuNzUgMTUwMCw0MTYuMyAxNTAwLDQ3Ny4xMyAiIGZpbGw9Im5vbmUiIGlkPSJDb250cm9sQnVjbGVQcmluY2lwYWwtdG8tQWNjZXNvRGF0b3MiIHN0eWxlPSJzdHJva2U6IzE4MTgxODtzdHJva2Utd2lkdGg6MS4wO3N0cm9rZS1kYXNoYXJyYXk6Ny4wLDcuMDsiLz48cG9seWdvbiBmaWxsPSIjMTgxODE4IiBwb2ludHM9IjE1MDAsNDgyLjEzLDE1MDQsNDczLjEzLDE1MDAsNDc3LjEzLDE0OTYsNDczLjEzLDE1MDAsNDgyLjEzIiBzdHlsZT0ic3Ryb2tlOiMxODE4MTg7c3Ryb2tlLXdpZHRoOjEuMDsiLz48dGV4dCBmaWxsPSIjMDAwMDAwIiBmb250LWZhbWlseT0ic2Fucy1zZXJpZiIgZm9udC1zaXplPSIxMyIgbGVuZ3RoQWRqdXN0PSJzcGFjaW5nIiB0ZXh0TGVuZ3RoPSIyMSIgeD0iMTUwMSIgeT0iMjYzLjI4OTEiPnVzYTwvdGV4dD48L2c+PCEtLWxpbmsgQ29udHJvbEJ1Y2xlUHJpbmNpcGFsIHRvIFBlcnNvbmFqZUZpY2hhLS0+PGcgaWQ9ImxpbmtfQ29udHJvbEJ1Y2xlUHJpbmNpcGFsX1BlcnNvbmFqZUZpY2hhIj48cGF0aCBjb2RlTGluZT0iMTEiIGQ9Ik0xMzUzLjcsMTM5LjM1IEMxMjI5LjMyLDE2NC45OSAxMDQ5LjI5LDIxMy4wNCA5MTAsMjk1IEM5MDIuNTUsMjk5LjM4IDg5NS4xNSwzMDQuMDUgODg3LjgzLDMwOC45NSAiIGZpbGw9Im5vbmUiIGlkPSJDb250cm9sQnVjbGVQcmluY2lwYWwtdG8tUGVyc29uYWplRmljaGEiIHN0eWxlPSJzdHJva2U6IzE4MTgxODtzdHJva2Utd2lkdGg6MS4wO3N0cm9rZS1kYXNoYXJyYXk6Ny4wLDcuMDsiLz48cG9seWdvbiBmaWxsPSIjMTgxODE4IiBwb2ludHM9Ijg4My4yOCwzMTIuMDMsODkyLjk3NjUsMzEwLjMwNDQsODg3LjQyMjYsMzA5LjIzMDIsODg4LjQ5NjgsMzAzLjY3NjMsODgzLjI4LDMxMi4wMyIgc3R5bGU9InN0cm9rZTojMTgxODE4O3N0cm9rZS13aWR0aDoxLjA7Ii8+PHRleHQgZmlsbD0iIzAwMDAwMCIgZm9udC1mYW1pbHk9InNhbnMtc2VyaWYiIGZvbnQtc2l6ZT0iMTMiIGxlbmd0aEFkanVzdD0ic3BhY2luZyIgdGV4dExlbmd0aD0iMjEiIHg9Ijk4NSIgeT0iMjYzLjI4OTEiPnVzYTwvdGV4dD48L2c+PCEtLWxpbmsgQ29udHJvbEJ1Y2xlUHJpbmNpcGFsIHRvIFZpc3RhTGlzdGFkb1RleHRvcy0tPjxnIGlkPSJsaW5rX0NvbnRyb2xCdWNsZVByaW5jaXBhbF9WaXN0YUxpc3RhZG9UZXh0b3MiPjxwYXRoIGNvZGVMaW5lPSIxMiIgZD0iTTE2NDYuMTIsMTg1LjU5IEMxNjk3LjQ2LDIxNC45NCAxNzUzLjIyLDI1Mi4xOCAxNzk3LDI5NSBDMTg0OS43NiwzNDYuNiAxODkyLjUsNDIxLjAxIDE5MTcuMzMsNDcwLjA0ICIgZmlsbD0ibm9uZSIgaWQ9IkNvbnRyb2xCdWNsZVByaW5jaXBhbC10by1WaXN0YUxpc3RhZG9UZXh0b3MiIHN0eWxlPSJzdHJva2U6IzE4MTgxODtzdHJva2Utd2lkdGg6MS4wO3N0cm9rZS1kYXNoYXJyYXk6Ny4wLDcuMDsiLz48cG9seWdvbiBmaWxsPSIjMTgxODE4IiBwb2ludHM9IjE5MTkuNjgsNDc0LjcsMTkxOS4yMjAyLDQ2NC44NjE5LDE5MTcuNDM4Miw0NzAuMjMwNywxOTEyLjA2OTQsNDY4LjQ0ODcsMTkxOS42OCw0NzQuNyIgc3R5bGU9InN0cm9rZTojMTgxODE4O3N0cm9rZS13aWR0aDoxLjA7Ii8+PHRleHQgZmlsbD0iIzAwMDAwMCIgZm9udC1mYW1pbHk9InNhbnMtc2VyaWYiIGZvbnQtc2l6ZT0iMTMiIGxlbmd0aEFkanVzdD0ic3BhY2luZyIgdGV4dExlbmd0aD0iMjEiIHg9IjE3NjMiIHk9IjI2My4yODkxIj51c2E8L3RleHQ+PC9nPjwhLS1saW5rIENvbnRyb2xCdWNsZVByaW5jaXBhbCB0byBWaXN0YUFsdGFzLS0+PGcgaWQ9ImxpbmtfQ29udHJvbEJ1Y2xlUHJpbmNpcGFsX1Zpc3RhQWx0YXMiPjxwYXRoIGNvZGVMaW5lPSIxMyIgZD0iTTE2NDYuMjQsMTMxLjc1IEMxNzcyLjU0LDE1Mi43NiAxOTU0LjU4LDE5OC4yOCAyMDg0LDI5NSBDMjEyMS42NCwzMjMuMTMgMjE1Mi43NSwzNjMuNjYgMjE3Ni43LDQwMi42MyAiIGZpbGw9Im5vbmUiIGlkPSJDb250cm9sQnVjbGVQcmluY2lwYWwtdG8tVmlzdGFBbHRhcyIgc3R5bGU9InN0cm9rZTojMTgxODE4O3N0cm9rZS13aWR0aDoxLjA7c3Ryb2tlLWRhc2hhcnJheTo3LjAsNy4wOyIvPjxwb2x5Z29uIGZpbGw9IiMxODE4MTgiIHBvaW50cz0iMjE3OS41OCw0MDcuMzcsMjE3OC4zMTczLDM5Ny42MDI0LDIxNzYuOTgwMyw0MDMuMDk5LDIxNzEuNDgzNyw0MDEuNzYyLDIxNzkuNTgsNDA3LjM3IiBzdHlsZT0ic3Ryb2tlOiMxODE4MTg7c3Ryb2tlLXdpZHRoOjEuMDsiLz48dGV4dCBmaWxsPSIjMDAwMDAwIiBmb250LWZhbWlseT0ic2Fucy1zZXJpZiIgZm9udC1zaXplPSIxMyIgbGVuZ3RoQWRqdXN0PSJzcGFjaW5nIiB0ZXh0TGVuZ3RoPSIyMSIgeD0iMjAzMSIgeT0iMjYzLjI4OTEiPnVzYTwvdGV4dD48L2c+PCEtLWxpbmsgVmlzdGFNZW51IHRvIFZpc3RhR2VuZXJhbC0tPjxnIGlkPSJsaW5rX1Zpc3RhTWVudV9WaXN0YUdlbmVyYWwiPjxwYXRoIGNvZGVMaW5lPSIxNCIgZD0iTTEwNjEuMTUsNTkwLjYyIEMxMDY1Ljc3LDY1MS43MSAxMDcyLjYsNzQxLjk4IDEwNzcuNzYsODEwLjMxICIgZmlsbD0ibm9uZSIgaWQ9IlZpc3RhTWVudS10by1WaXN0YUdlbmVyYWwiIHN0eWxlPSJzdHJva2U6IzE4MTgxODtzdHJva2Utd2lkdGg6MS4wOyIvPjxwb2x5Z29uIGZpbGw9Im5vbmUiIHBvaW50cz0iMTA4NC43NSw4MDkuODMsMTA3OS4yOCw4MzAuMywxMDcwLjc5LDgxMC44OSwxMDg0Ljc1LDgwOS44MyIgc3R5bGU9InN0cm9rZTojMTgxODE4O3N0cm9rZS13aWR0aDoxLjA7Ii8+PHRleHQgZmlsbD0iIzAwMDAwMCIgZm9udC1mYW1pbHk9InNhbnMtc2VyaWYiIGZvbnQtc2l6ZT0iMTMiIGxlbmd0aEFkanVzdD0ic3BhY2luZyIgdGV4dExlbmd0aD0iMzUiIHg9IjEwNzgiIHk9Ijc5MS4yODkxIj5lcyB1bjwvdGV4dD48L2c+PCEtLXJldmVyc2UgbGluayBQZXJzb25hamVGaWNoYSB0byBFcXVpcG8tLT48ZyBpZD0ibGlua19QZXJzb25hamVGaWNoYV9FcXVpcG8iPjxwYXRoIGNvZGVMaW5lPSIxNSIgZD0iTTQ3NC44Myw3NTIuMTEgQzQ1Mi44Myw3NzcuMjIgNDMxLjYzLDgwMS40MiA0MTIuODEsODIyLjkgIiBmaWxsPSJub25lIiBpZD0iUGVyc29uYWplRmljaGEtYmFja3RvLUVxdWlwbyIgc3R5bGU9InN0cm9rZTojMTgxODE4O3N0cm9rZS13aWR0aDoxLjA7Ii8+PHBvbHlnb24gZmlsbD0iIzE4MTgxOCIgcG9pbnRzPSI0NzguMzYsNzQ4LjA4LDQ2OS40MjQzLDc1Mi4yMjE2LDQ3NS4wNjg1LDc1MS44NDM4LDQ3NS40NDYzLDc1Ny40ODgsNDc4LjM2LDc0OC4wOCIgc3R5bGU9InN0cm9rZTojMTgxODE4O3N0cm9rZS13aWR0aDoxLjA7Ii8+PHRleHQgZmlsbD0iIzAwMDAwMCIgZm9udC1mYW1pbHk9InNhbnMtc2VyaWYiIGZvbnQtc2l6ZT0iMTMiIGxlbmd0aEFkanVzdD0ic3BhY2luZyIgdGV4dExlbmd0aD0iMTA5IiB4PSI0NTAiIHk9Ijc5MS4yODkxIj5lc3RhIGZvcm1hZG8gcG9yPC90ZXh0PjwvZz48IS0tcmV2ZXJzZSBsaW5rIFBlcnNvbmFqZUZpY2hhIHRvIFByb2Zlc2lvbi0tPjxnIGlkPSJsaW5rX1BlcnNvbmFqZUZpY2hhX1Byb2Zlc2lvbiI+PHBhdGggY29kZUxpbmU9IjE2IiBkPSJNNjA1Ljc4LDc2MC44MiBDNTk1LjY1LDc5NS4xOCA1ODYuMTYsODI3LjQxIDU3OC43LDg1Mi43MyAiIGZpbGw9Im5vbmUiIGlkPSJQZXJzb25hamVGaWNoYS1iYWNrdG8tUHJvZmVzaW9uIiBzdHlsZT0ic3Ryb2tlOiMxODE4MTg7c3Ryb2tlLXdpZHRoOjEuMDsiLz48cG9seWdvbiBmaWxsPSJub25lIiBwb2ludHM9IjYwOS41Myw3NDguMDgsNjAzLjk5ODQsNzUyLjcwNjIsNjA2LjE0MTEsNzU5LjU5MTUsNjExLjY3MjgsNzU0Ljk2NTQsNjA5LjUzLDc0OC4wOCIgc3R5bGU9InN0cm9rZTojMTgxODE4O3N0cm9rZS13aWR0aDoxLjA7Ii8+PHRleHQgZmlsbD0iIzAwMDAwMCIgZm9udC1mYW1pbHk9InNhbnMtc2VyaWYiIGZvbnQtc2l6ZT0iMTMiIGxlbmd0aEFkanVzdD0ic3BhY2luZyIgdGV4dExlbmd0aD0iMjciIHg9IjYwMSIgeT0iNzkxLjI4OTEiPmVudW08L3RleHQ+PC9nPjwhLS1yZXZlcnNlIGxpbmsgUGVyc29uYWplRmljaGEgdG8gUmF6YS0tPjxnIGlkPSJsaW5rX1BlcnNvbmFqZUZpY2hhX1JhemEiPjxwYXRoIGNvZGVMaW5lPSIxNyIgZD0iTTY3Niw3NjEuMjcgQzY3Niw3OTUuNDYgNjc2LDgyNy41MiA2NzYsODUyLjczICIgZmlsbD0ibm9uZSIgaWQ9IlBlcnNvbmFqZUZpY2hhLWJhY2t0by1SYXphIiBzdHlsZT0ic3Ryb2tlOiMxODE4MTg7c3Ryb2tlLXdpZHRoOjEuMDsiLz48cG9seWdvbiBmaWxsPSJub25lIiBwb2ludHM9IjY3Niw3NDguMDgsNjcyLDc1NC4wOCw2NzYsNzYwLjA4LDY4MCw3NTQuMDgsNjc2LDc0OC4wOCIgc3R5bGU9InN0cm9rZTojMTgxODE4O3N0cm9rZS13aWR0aDoxLjA7Ii8+PHRleHQgZmlsbD0iIzAwMDAwMCIgZm9udC1mYW1pbHk9InNhbnMtc2VyaWYiIGZvbnQtc2l6ZT0iMTMiIGxlbmd0aEFkanVzdD0ic3BhY2luZyIgdGV4dExlbmd0aD0iMjciIHg9IjY3NyIgeT0iNzkxLjI4OTEiPmVudW08L3RleHQ+PC9nPjwhLS1yZXZlcnNlIGxpbmsgUGVyc29uYWplRmljaGEgdG8gQXJtYWR1cmEtLT48ZyBpZD0ibGlua19QZXJzb25hamVGaWNoYV9Bcm1hZHVyYSI+PHBhdGggY29kZUxpbmU9IjE4IiBkPSJNNzQ0LjQxLDc2MSBDNzU1LjI2LDc5OC44MiA3NjUuMzcsODM0LjA2IDc3Mi45LDg2MC4zMyAiIGZpbGw9Im5vbmUiIGlkPSJQZXJzb25hamVGaWNoYS1iYWNrdG8tQXJtYWR1cmEiIHN0eWxlPSJzdHJva2U6IzE4MTgxODtzdHJva2Utd2lkdGg6MS4wOyIvPjxwb2x5Z29uIGZpbGw9Im5vbmUiIHBvaW50cz0iNzQwLjcsNzQ4LjA4LDczOC41MDk1LDc1NC45NTAzLDc0NC4wMDg4LDc1OS42MTQ4LDc0Ni4xOTk0LDc1Mi43NDQ1LDc0MC43LDc0OC4wOCIgc3R5bGU9InN0cm9rZTojMTgxODE4O3N0cm9rZS13aWR0aDoxLjA7Ii8+PHRleHQgZmlsbD0iIzAwMDAwMCIgZm9udC1mYW1pbHk9InNhbnMtc2VyaWYiIGZvbnQtc2l6ZT0iMTMiIGxlbmd0aEFkanVzdD0ic3BhY2luZyIgdGV4dExlbmd0aD0iMjciIHg9Ijc1NSIgeT0iNzkxLjI4OTEiPmVudW08L3RleHQ+PC9nPjwhLS1yZXZlcnNlIGxpbmsgUGVyc29uYWplRmljaGEgdG8gQXJtYS0tPjxnIGlkPSJsaW5rX1BlcnNvbmFqZUZpY2hhX0FybWEiPjxwYXRoIGNvZGVMaW5lPSIxOSIgZD0iTTgxNC40MSw3NTkuNDcgQzgzNC43Nyw3OTQuMzMgODUzLjksODI3LjA3IDg2OC44OSw4NTIuNzMgIiBmaWxsPSJub25lIiBpZD0iUGVyc29uYWplRmljaGEtYmFja3RvLUFybWEiIHN0eWxlPSJzdHJva2U6IzE4MTgxODtzdHJva2Utd2lkdGg6MS4wOyIvPjxwb2x5Z29uIGZpbGw9Im5vbmUiIHBvaW50cz0iODA3Ljc2LDc0OC4wOCw4MDcuMzM1NSw3NTUuMjc4Niw4MTMuODE3MSw3NTguNDM5MSw4MTQuMjQxNiw3NTEuMjQwNSw4MDcuNzYsNzQ4LjA4IiBzdHlsZT0ic3Ryb2tlOiMxODE4MTg7c3Ryb2tlLXdpZHRoOjEuMDsiLz48dGV4dCBmaWxsPSIjMDAwMDAwIiBmb250LWZhbWlseT0ic2Fucy1zZXJpZiIgZm9udC1zaXplPSIxMyIgbGVuZ3RoQWRqdXN0PSJzcGFjaW5nIiB0ZXh0TGVuZ3RoPSIyNyIgeD0iODM1IiB5PSI3OTEuMjg5MSI+ZW51bTwvdGV4dD48L2c+PCEtLVNSQz1bWExQVFJrQ3M0N3hkQVZKZVhMUHgwMkM4dTNYZ2NZQTlaTFc5NWJXaVdiY1BUalhBZjRmQVJiZXJYcmhxMjdrbjNhYkg5NnFiLXM5T3l0c1M2TnhwOHdhXzY2ejBHZnNlUHpZQWxuWlY5cGtlNTJOYWFRYU1oWVlkNGdlaS1fU3lWQ3ZWSWpncUpGMXZmdTFDOGxnOGZyNkxUOW9HRFBMQVNGWVRfaUJBUF9acXdKbXM1NUlybmNGLVB5U1FXUlp6Q3poOUtsMU1Za2dZQW9rd2Jlb05oODRBVUlRNU15ZXhHdGtCaklYQmdpR2JqNEF6b3VrcFVmVGcwal9lZG9zYy1WOHBwdVEtZzVmR05aY1R6aDcwV3MxbjhjVFBQbEwwajhMYTlzSURLUEQ2bzJEWThoOGlNS2tuZXlnOHB4andZZDRGX3kyUnU0OHh4LUp4MTBrSVBHTEE5UERqcTlGTjJEVU54S2NfT25vZ3JudURCSWpWaW9CX05Bb1VMa2xZVWRNdElVUjlmYU5EemItIC1hZW5uX0xXMkh4U2FneElCTExFWU9uSGVaWmI4LTVraFZzUEZkOURxWjM4aGxkcHpHRDlRZzVRMlQ4VGNRNmhlYldxNlY4cHBZcWhQYXNvZHh4a2VRWVdmWG9yV3A0VFFqYUFVc0tndVdENm5jU0x5eTlDZVdxZ1o0OWF2a0FPZTFZT3IyZDJZNHlNa2liYXVJSG9LeGNjUk1uSVpaTFBwTFJISkFUdW9zcjNsV1h5Sm5ibHBDcXQzWGZ2dkhkbkxxLXB6S0JneFpYdzRpWWZ2QUx0amljT0d1NHhLdG9KemhUa1pmREFoU09JRkZVYVBHcExDSkJubERrWV9FMzNiQnZlcmFrdXh0ZUFDdWluRWFKNTJYOHMzNUxkckM0SzZEcTBkSGpzMjlTV3pVV2h5WndlNUl3ZWRJSGV5MVhMQ0tsZzJTdXlVWG1xZmJrZW1lLVJfZlN6UnBTRlgtOVg4a2JsOHlmYVRuN25HT3R1R1JFazNKLXdqdGVWRExraWJwY1ktVVJoRHhueDJJVk1LLXRvcFZpV3RuTUJwajdjdUFBd0JYdmpMbzRuamNnRHhuRW1iSTFlcVlSXzNRUUVhYXNiZ2VSLVRNOElQeXdNYWFUcHNzV1J5eUgtRmZwUzQxUi1raFN1Sjg5eENOd1BHTndLUTY5LXZjbi1CN0l6TGQ5NmpobDhHUzNpdjhWb2pwWC1HWVBibnRPZ3NVcjF4Q1JPbExJSUpzQktFcTFzQzlYWndyZmJUN216R1E0UEpBSEpPd2xhb1BncmVlT2VBWThpMUtuN0FaNi1PbFdQODZZa1gxd0dMelc4ZXdOMkpxUUd4dExsUEs5X08xTjhBT1REMWhjaWxueHJYZDVoQUtNMHQ1QjZQd0VMd2oybDYtMkNLVGJTMHNocW1EdmVmQXg0czFxamFtQ0F3UThSVjdtRjE1eUIxNE9IY1RQZ0JrejZaeFpuRlNGU3VXS3N3bFhxMm42VHl0NE8xUUttd1JmcVpYYVNUQ2l3NEJMTUZCLWNYTU9PVWlRbDFoNDRfNWQ2UFMyLXVZZkNLVmRtN1YzLVBOVUJMWTBfZUZJb3V3Z2dtVlRPMjN6Tnd0TVRVUGZ2WGhVNW9ETnNBeUp1TlBkTmVIX0REcmo5dUJQbGJka0VOYWx5Y3d5YTVvQXFXMnVNRk45MVJzMGpvckw0ZkNTUDhyb05lb1F6VDNLWjlndnFXQXJkWUZ3d1Y3U2M5dEVEN2NpQk5Gb2F4eFFGZUUyaVhPZzRocUVyeTJObHluNVFEOWJ6OUxXbDlxRHRfXS0tPjwvZz48L3N2Zz4=;rotation=90;" parent="WIyWlLk6GJQsqaUBKTNV-1" vertex="1">
            <mxGeometry x="-1983.98" y="708.34" width="2012.86" height="1055.2" as="geometry" />
          </mxCell>
        </UserObject>
      </root>
    </mxGraphModel>
  </diagram>
</mxfile>
